<svg width="193" height="193" viewBox="0 0 193 193" fill="none" xmlns="http://www.w3.org/2000/svg">
<path d="M192 96.5C192 149.243 149.243 192 96.5 192C43.7568 192 1 149.243 1 96.5C1 43.7568 43.7568 1 96.5 1C149.243 1 192 43.7568 192 96.5Z" stroke="white" stroke-width="2"/>
<path fill-rule="evenodd" clip-rule="evenodd" d="M85.0465 93.5238C85.0465 88.3632 89.2458 84.1628 94.4075 84.1628C99.5692 84.1628 103.767 88.3632 103.767 93.5238C103.767 98.6844 99.5681 102.884 94.4075 102.884C89.2469 102.884 85.0465 98.6844 85.0465 93.5238ZM87.1594 93.5248C87.1594 97.5213 90.4111 100.772 94.4075 100.772C98.405 100.772 101.655 97.5213 101.655 93.5248C101.655 89.5284 98.404 86.2767 94.4075 86.2767C90.4111 86.2767 87.1594 89.5284 87.1594 93.5248Z" fill="white"/>
<path fill-rule="evenodd" clip-rule="evenodd" d="M49.7442 134.442C49.7442 129.722 53.5831 125.884 58.3018 125.884C63.0215 125.884 66.8605 129.722 66.8605 134.442C66.8605 139.161 63.0215 143 58.3018 143C53.5831 143 49.7442 139.161 49.7442 134.442ZM51.8215 134.443C51.8215 138.016 54.7288 140.924 58.3018 140.924C61.8748 140.924 64.7831 138.016 64.7831 134.443C64.7831 130.87 61.8748 127.962 58.3018 127.962C54.7288 127.962 51.8215 130.87 51.8215 134.443Z" fill="white"/>
<path d="M58.3023 137.116C59.7794 137.116 60.9768 135.919 60.9768 134.442C60.9768 132.965 59.7794 131.767 58.3023 131.767C56.8253 131.767 55.6279 132.965 55.6279 134.442C55.6279 135.919 56.8253 137.116 58.3023 137.116Z" fill="white"/>
<path fill-rule="evenodd" clip-rule="evenodd" d="M131.047 59.5582C131.047 64.2776 127.208 68.1163 122.488 68.1163C117.769 68.1163 113.93 64.2776 113.93 59.5582C113.93 54.8387 117.769 51 122.488 51C127.208 51 131.047 54.8387 131.047 59.5582ZM128.969 59.5581C128.969 55.9853 126.061 53.0772 122.488 53.0772C118.914 53.0772 116.007 55.9853 116.007 59.5581C116.007 63.1309 118.916 66.0391 122.488 66.0391C126.061 66.0391 128.969 63.1309 128.969 59.5581Z" fill="white"/>
<path d="M122.488 62.2326C123.965 62.2326 125.163 61.0352 125.163 59.5581C125.163 58.0811 123.965 56.8837 122.488 56.8837C121.011 56.8837 119.814 58.0811 119.814 59.5581C119.814 61.0352 121.011 62.2326 122.488 62.2326Z" fill="white"/>
<path fill-rule="evenodd" clip-rule="evenodd" d="M113.414 95.134H118.112C129.078 95.134 137.999 104.076 138 115.068V116.358C138 127.215 129.078 136.047 118.112 136.047H69.8596C69.2795 136.047 68.8107 135.578 68.8107 134.997C68.8107 134.417 69.2795 133.948 69.8596 133.948H118.112C127.922 133.948 135.902 126.058 135.902 116.358V115.068C135.902 105.233 127.922 97.2321 118.112 97.2321H113.197C110.99 113.337 95.4374 130.775 94.7241 131.567C94.528 131.784 94.249 131.91 93.9563 131.913H93.9448C93.6553 131.913 93.3784 131.795 93.1801 131.584C92.4678 130.825 76.8006 113.99 74.668 97.2321H65.6638C54.6371 97.2321 46 88.564 46 77.4987C46 72.199 48.0623 67.2192 51.8049 63.4762C55.7417 59.5371 60.6634 57.3687 65.6638 57.3687H105.335V55.2791L110.77 58.4178L105.335 61.5565V59.4668H65.6649C61.2246 59.4668 56.8305 61.417 53.2892 64.9596C49.9431 68.3071 48.0989 72.7602 48.0989 77.4987C48.0989 87.388 55.8141 95.134 65.6649 95.134H74.4719C74.4425 94.6106 74.4236 94.0871 74.4236 93.5647C74.4236 83.152 82.5583 74.5824 92.943 74.0558C98.1794 73.8113 103.419 75.7374 107.303 79.3964C111.229 83.0953 113.42 88.0499 113.468 93.3486C113.473 93.9402 113.451 94.5361 113.414 95.134ZM76.5195 93.5647C76.5195 108.566 90.4496 125.326 93.929 129.28C97.4 125.187 111.499 107.673 111.369 93.3654C111.326 88.6447 109.371 84.2251 105.864 80.9217C102.603 77.8512 98.2822 76.1297 93.8944 76.1297C93.6112 76.1297 93.3301 76.137 93.0479 76.1517C83.7793 76.6217 76.5195 84.2702 76.5195 93.5647Z" fill="white"/>
</svg>
