<svg width="63" height="70" viewBox="0 0 63 70" fill="none" xmlns="http://www.w3.org/2000/svg">
<path fill-rule="evenodd" clip-rule="evenodd" d="M14.1146 42.2637C15.2894 42.2688 16.4175 42.3557 17.4697 42.521C23.0912 43.4069 25.79 46.4446 27.0627 48.8383C28.442 51.4279 28.4786 53.8003 28.4794 53.9V68.9062C28.4794 69.1354 28.3883 69.3552 28.2266 69.517C28.0648 69.6797 27.8452 69.77 27.6161 69.77L17.4238 69.7666C17.1675 69.7666 16.924 69.6525 16.7606 69.4557C16.5963 69.2589 16.529 68.9991 16.575 68.7461C16.5784 68.729 16.8891 67.0338 17.1641 64.9758C17.949 59.1304 17.4408 58.086 17.3804 57.9863C17.1282 57.5759 15.6739 56.8435 14.3873 56.1956L14.3857 56.1947L14.3776 56.1906C11.3434 54.665 6.7597 52.3582 4.16479 48.2982C3.73773 47.6305 3.35925 47.0686 3.02454 46.5718L2.98993 46.5204L2.98792 46.5173C1.24335 43.9291 0.589111 42.9586 0.534668 38.1007C0.532104 37.8434 0.530396 37.5751 0.530396 37.2923C0.530396 36.8928 0.532959 36.4643 0.538086 36.0103C0.557617 34.2205 0.613831 31.9963 0.684509 29.2372L0.727051 27.5676C0.727478 27.5526 0.728333 27.5378 0.729431 27.5229C0.730591 27.5075 0.732117 27.4921 0.733887 27.4764C0.943298 25.8885 2.3114 24.6909 3.91705 24.6909C5.68872 24.6909 7.13092 26.1339 7.13092 27.9074V36.5938C9.12988 37.9729 10.962 39.9177 11.5018 40.5097C12.6426 41.7594 13.8132 42.1734 14.1146 42.2637ZM5.40442 35.5954V27.9083C5.40442 27.0871 4.73694 26.4193 3.91797 26.4184C3.89191 26.4184 3.86609 26.4192 3.84045 26.4205C3.81995 26.4215 3.79956 26.4229 3.77917 26.4244C3.76385 26.4261 3.74854 26.4286 3.73322 26.4304C3.70343 26.4337 3.67358 26.4372 3.6438 26.4423C3.63489 26.444 3.62616 26.4461 3.61743 26.4482C3.6087 26.4504 3.59998 26.4525 3.591 26.4542L3.56329 26.4604L3.55524 26.4622C3.54126 26.4652 3.52728 26.4684 3.51355 26.4721C3.50024 26.4757 3.48737 26.4802 3.47467 26.4846L3.45905 26.49C3.44183 26.4955 3.42462 26.5006 3.40771 26.5062L3.39746 26.5097L3.38843 26.513C3.36969 26.5198 3.35181 26.5283 3.33392 26.536L3.31177 26.5451C3.29675 26.5512 3.28174 26.5573 3.26752 26.5641C3.24963 26.5726 3.2326 26.5828 3.21472 26.5913C3.19427 26.6033 3.17303 26.6135 3.15259 26.6254C3.14038 26.6328 3.12866 26.6405 3.1167 26.6484L3.10236 26.6578C3.08276 26.6706 3.06317 26.6825 3.04443 26.6961C3.03851 26.7002 3.03278 26.7044 3.02704 26.7088C3.01697 26.7165 3.00702 26.7246 2.99677 26.7328L2.99585 26.7335C2.97827 26.7469 2.96069 26.7603 2.94318 26.7754L2.92834 26.7889L2.9129 26.8037L2.89886 26.8171C2.88873 26.8262 2.8786 26.8353 2.8689 26.8446C2.86224 26.8509 2.85571 26.8574 2.84949 26.864C2.84119 26.8728 2.83289 26.8823 2.82458 26.8918L2.80865 26.9099C2.79419 26.927 2.77881 26.9432 2.76434 26.9611C2.76044 26.9657 2.75677 26.9703 2.75323 26.9749C2.74805 26.9817 2.74304 26.9885 2.73804 26.9954L2.72693 27.0105C2.71326 27.0284 2.69965 27.0462 2.68689 27.065C2.68323 27.0703 2.67969 27.0756 2.67621 27.081C2.67151 27.0884 2.66699 27.0959 2.66248 27.1033L2.65369 27.1178L2.65149 27.1215C2.64032 27.1398 2.62915 27.1582 2.61877 27.1766C2.61139 27.1895 2.60492 27.2029 2.59833 27.2163L2.5907 27.2319C2.58044 27.2524 2.57025 27.2728 2.56091 27.2941L2.5379 27.3529L2.53149 27.3694C2.52521 27.3858 2.51892 27.4019 2.51318 27.4185L2.50641 27.4413L2.50067 27.4612L2.49536 27.4798C2.48938 27.502 2.48169 27.525 2.47662 27.548C2.47345 27.5612 2.47095 27.5743 2.46844 27.5875L2.4679 27.5905L2.46381 27.6119C2.46112 27.6248 2.4588 27.637 2.4566 27.6494L2.45276 27.6715L2.41193 29.2823C2.34888 31.7169 2.29785 33.7333 2.27313 35.3952C2.44598 35.3101 2.62897 35.2436 2.82141 35.1985C2.82739 35.1967 2.83502 35.1959 2.84186 35.1942C2.9278 35.1738 3.01636 35.1601 3.10492 35.1482L3.11444 35.1469L3.11682 35.1466C3.13806 35.1438 3.15912 35.141 3.18066 35.1388C3.27429 35.1286 3.36969 35.1235 3.46759 35.1227C3.47351 35.1227 3.48035 35.1209 3.48718 35.1209C3.52039 35.1209 3.5553 35.1244 3.58929 35.1252L3.61902 35.1259L3.65076 35.1266C3.65973 35.1269 3.66876 35.1272 3.67786 35.1277C3.69794 35.1289 3.71826 35.1307 3.73865 35.1326L3.80981 35.1397L3.84546 35.1428C3.86401 35.1445 3.88257 35.1465 3.90179 35.149C3.92944 35.1517 3.95709 35.1555 3.98474 35.1597L4.03711 35.1678C4.0686 35.1738 4.10016 35.178 4.13165 35.184C4.17761 35.1925 4.22357 35.2019 4.27039 35.2121C4.30273 35.218 4.33423 35.2249 4.36658 35.2325C4.41431 35.2445 4.46198 35.2572 4.5105 35.2709C4.54285 35.2794 4.57434 35.287 4.60754 35.2973C4.62506 35.3025 4.64282 35.308 4.66071 35.3135L4.69226 35.3235L4.75653 35.3441L4.79242 35.3558C4.81299 35.3624 4.83337 35.3689 4.85443 35.3765C4.90552 35.3935 4.95746 35.414 5.0094 35.4327L5.03052 35.4409L5.05139 35.4487L5.0733 35.4569C5.08453 35.4611 5.09589 35.4655 5.1073 35.4702C5.1601 35.4907 5.21368 35.5136 5.26733 35.5367C5.28241 35.5432 5.29736 35.5495 5.31238 35.5558C5.33032 35.5633 5.34839 35.5709 5.36694 35.5793C5.3797 35.5852 5.39166 35.5895 5.40442 35.5954ZM15.1532 54.6479L15.1525 54.6476C12.1166 53.1202 7.95825 51.0281 5.6189 47.368C5.17114 46.6673 4.77917 46.0857 4.43298 45.5721L4.42108 45.5544C3.34668 43.9615 2.77966 43.1207 2.49957 41.5558C2.56256 41.6265 2.62726 41.6964 2.69366 41.7679C3.91296 43.0694 5.50415 44.272 6.56256 45.072L6.57758 45.0833L6.61127 45.1089C7.06952 45.4554 7.49811 45.7795 7.64685 45.9275L7.65051 45.932L7.65088 45.9325C7.6521 45.9339 7.65332 45.9353 7.65448 45.9369L7.65875 45.9411C7.72723 46.0152 7.83179 46.1394 7.95538 46.2862L8.04358 46.3909L8.04669 46.3947C9.52545 48.1567 13.4436 52.8254 18.0129 52.3173C18.4871 52.2636 18.8285 51.8377 18.7757 51.3632C18.7229 50.8887 18.2955 50.5488 17.8222 50.5999C14.1716 51.0085 10.6857 46.8542 9.36853 45.2844L9.36487 45.2801L9.36322 45.2781C9.18781 45.0687 9.04779 44.9015 8.9375 44.7809C8.92981 44.7724 8.92218 44.7639 8.91364 44.7562C8.90942 44.7502 8.90344 44.7443 8.89832 44.7392L8.89728 44.7372C8.89667 44.7361 8.89594 44.7351 8.8949 44.7341C8.65924 44.4914 8.22198 44.1611 7.61798 43.7049L7.61707 43.7042L7.60956 43.6986L7.60919 43.6982C6.53796 42.8886 5.07385 41.782 3.95197 40.5855C3.95197 40.5847 3.95111 40.5847 3.95111 40.5839C3.19 39.7703 2.71667 39.0497 2.54382 38.4397V38.438C2.521 38.36 2.50366 38.2849 2.49158 38.212C2.47888 38.1353 2.47198 38.0612 2.47064 37.9891C2.46997 37.9629 2.47144 37.9383 2.4729 37.9132L2.47406 37.8929C2.47443 37.8873 2.47449 37.8818 2.47455 37.8762C2.47461 37.868 2.47473 37.8597 2.47571 37.8511C2.49188 37.6705 2.54724 37.5035 2.64258 37.3426C2.84607 37.0001 3.06744 36.9141 3.21558 36.8783C3.5365 36.8025 4.2959 36.8195 5.77899 37.7685L5.78656 37.7734C5.79041 37.7759 5.79425 37.7784 5.79785 37.7809L5.80194 37.7838C7.82391 39.0837 9.84161 41.2517 10.2264 41.6742C11.936 43.5475 13.7425 43.9546 13.8183 43.9708C13.8779 43.9836 13.9392 43.9896 14.0005 43.9896C15.1268 43.9896 16.2038 44.0696 17.2015 44.2255C26.529 45.6967 26.7486 53.5806 26.7537 53.906V64.2261H19.0005C19.6969 58.4787 19.0924 57.4761 18.8549 57.0851C18.3423 56.2528 17.0739 55.6139 15.1532 54.6479ZM18.7715 65.9554C18.6548 66.7698 18.5399 67.4956 18.4496 68.0399L26.7529 68.0433V65.9554H18.7715Z" fill="url(#paint0_linear)"/>
<path fill-rule="evenodd" clip-rule="evenodd" d="M62.2687 27.5684L62.3087 29.1316C62.6467 42.3421 62.6526 42.5942 60.0067 46.5187L59.9667 46.5781C59.6326 47.0744 59.2566 47.6332 58.8309 48.2982C56.2363 52.3569 51.6542 54.6628 48.6207 56.1893L48.6198 56.1898C47.3309 56.838 45.8691 57.574 45.6137 57.9897C45.2161 58.6465 45.3839 61.6152 45.8146 64.8914C45.8207 64.9197 45.8256 64.9483 45.8291 64.9772C45.8319 65.0006 45.8339 65.0242 45.8351 65.0482C46.0002 66.2783 46.1995 67.545 46.4208 68.7461C46.4659 68.9982 46.3987 69.258 46.2344 69.4548C46.0709 69.6516 45.8282 69.7657 45.572 69.7657L35.3788 69.7692C35.1498 69.7692 34.9301 69.678 34.7684 69.5161C34.6058 69.3543 34.5155 69.1345 34.5155 68.9054V53.9077C34.5164 53.7799 34.5623 50.9236 36.3893 48.0529C38.0605 45.4249 41.5843 42.2944 48.8829 42.262C49.1741 42.1743 50.3489 41.7637 51.4932 40.5089C52.2092 39.7243 53.9561 37.9048 55.8649 36.5981V27.9074C55.8649 26.1339 57.3062 24.6909 59.0795 24.6909C60.6835 24.6909 62.0516 25.8885 62.2619 27.4764C62.2628 27.4822 62.2631 27.488 62.2631 27.4937L62.263 27.51C62.2629 27.5155 62.2631 27.5211 62.2636 27.5267C62.264 27.5332 62.265 27.5393 62.2661 27.5454C62.2674 27.5529 62.2687 27.5604 62.2687 27.5684ZM36.2412 65.9554V68.0424L44.541 68.039C44.4406 67.4478 44.3248 66.7332 44.2115 65.9554H36.2412ZM44.9812 52.3164C49.5549 52.8249 53.475 48.1512 54.9508 46.3916L54.9514 46.3909C55.0176 46.3116 55.0805 46.2369 55.1373 46.1701C55.2183 46.0748 55.2871 45.9956 55.3362 45.942C55.4619 45.8052 55.9503 45.4361 56.4226 45.0791L56.4259 45.0765C57.5982 44.1914 59.2371 42.9537 60.4783 41.5712C60.1855 43.165 59.6091 44.0211 58.5747 45.5544C58.2248 46.0723 57.8289 46.6601 57.376 47.3697C55.0365 51.0284 50.8793 53.1206 47.8443 54.6479C45.9228 55.6148 44.6534 56.2537 44.1392 57.0919C43.4615 58.2104 43.636 61.3554 43.9808 64.2287H36.2404V53.9162V53.914C36.2426 53.8276 36.3019 51.4074 37.8452 48.9814C39.9514 45.6694 43.7025 43.9904 48.9953 43.9904C49.0566 43.9904 49.1179 43.9844 49.1775 43.9717C49.2532 43.9547 51.059 43.5492 52.7685 41.6759C54.0949 40.2235 55.7338 38.7311 57.1725 37.7983C57.1829 37.7917 57.1934 37.7852 57.2039 37.7785C57.2113 37.7737 57.2187 37.7688 57.226 37.7636C57.2295 37.761 57.233 37.7584 57.2364 37.7557C58.1082 37.1986 58.9033 36.851 59.5044 36.851C59.5538 36.851 59.6014 36.8536 59.6483 36.8587C59.959 36.8902 60.1693 37.035 60.3531 37.3443C61.4217 39.1386 57.1993 42.3296 55.3913 43.696L55.3873 43.6991C54.6721 44.2392 54.2899 44.5322 54.0676 44.7716C53.9561 44.8934 53.8123 45.0646 53.6292 45.2818C52.3156 46.8475 48.8242 51.0071 45.1719 50.6008C44.6977 50.5488 44.2703 50.8896 44.2184 51.364C44.1664 51.8385 44.5078 52.2628 44.9812 52.3164ZM57.5914 35.6099C58.3695 35.2606 59.1323 35.0681 59.8228 35.1388C60.1472 35.172 60.4485 35.2581 60.7244 35.3952C60.6996 33.735 60.6477 31.7024 60.583 29.1767L60.5447 27.6706C60.4323 26.944 59.8219 26.4193 59.0795 26.4193C58.2589 26.4193 57.5914 27.088 57.5914 27.9083V35.6099Z" fill="url(#paint1_linear)"/>
<mask id="path-3-outside-1" maskUnits="userSpaceOnUse" x="11" y="0.198914" width="40" height="40" fill="black">
<rect fill="white" x="11" y="0.198914" width="40" height="40"/>
<path fill-rule="evenodd" clip-rule="evenodd" d="M31 1.19891C20.513 1.19891 12 9.81293 12 20.4243C12 30.1768 19.2011 38.2363 28.5062 39.478C28.5229 39.4845 28.5399 39.4903 28.5571 39.4951C29.3599 39.5999 30.1693 39.6496 31 39.6496C41.487 39.6496 50 31.0356 50 20.4243C50 9.81293 41.487 1.19891 31 1.19891ZM30.4572 2.31467V11.6184C28.1608 11.5416 25.9092 10.9966 23.8071 10.0391C25.0838 6.89578 26.8653 4.21896 28.8625 2.43481C29.3859 2.37195 29.9208 2.33093 30.4572 2.31467ZM33.1375 2.43481C32.6141 2.37195 32.0792 2.33093 31.5428 2.31467V11.6184C33.8392 11.5416 36.0908 10.9966 38.1929 10.0391C36.9162 6.89578 35.1347 4.21896 33.1375 2.43481ZM26.9964 2.76099C25.3398 4.56656 23.9056 6.89447 22.8232 9.54135C21.4737 8.83096 20.1954 7.96442 19.0232 6.94937C21.2477 4.92538 23.9762 3.45755 26.9964 2.76099ZM42.9767 6.94937C40.7523 4.92538 38.0237 3.45755 35.0035 2.76099C36.6602 4.56656 38.0943 6.89447 39.1768 9.54135C40.5263 8.83096 41.8045 7.96442 42.9767 6.94937ZM18.2259 7.7218C19.5101 8.84622 20.9227 9.81375 22.4161 10.5884C21.3823 13.4417 20.7667 16.6145 20.7026 19.875H13.1027C13.243 15.1393 15.1641 10.8703 18.2259 7.7218ZM48.8973 19.875C48.757 15.1393 46.8359 10.8703 43.7741 7.7218C42.4899 8.84622 41.0773 9.81375 39.5839 10.5884C40.6177 13.4417 41.2333 16.6145 41.2973 19.875H48.8973ZM23.417 11.0691C25.6359 12.069 28.0177 12.6409 30.4572 12.7169V19.875H21.7884C21.8529 16.7874 22.4425 13.7803 23.417 11.0691ZM40.2116 19.875C40.1471 16.7874 39.5575 13.7803 38.583 11.0691C36.3641 12.069 33.9822 12.6409 31.5428 12.7169V19.875H40.2116ZM13.1027 20.9736H20.7026C20.766 24.236 21.3815 27.4085 22.4161 30.2601C20.9158 31.0355 19.4978 31.9958 18.2089 33.1267C15.1548 29.9777 13.2404 25.7045 13.1027 20.9736ZM30.4572 20.9736H21.7884C21.8521 24.0574 22.445 27.0737 23.417 29.7795C25.636 28.7839 28.0176 28.2069 30.4572 28.1316V20.9736ZM31.5428 20.9736H40.2116C40.1479 24.0574 39.555 27.0737 38.583 29.7795C36.364 28.7839 33.9824 28.2069 31.5428 28.1316V20.9736ZM48.8973 20.9736H41.2973C41.2339 24.236 40.6184 27.4085 39.5839 30.2601C41.0841 31.0355 42.5021 31.9958 43.7911 33.1267C46.8452 29.9777 48.7596 25.7045 48.8973 20.9736ZM30.4572 29.2302V38.5339C29.938 38.5181 29.4205 38.4903 28.9134 38.4309C26.8984 36.6468 25.0931 33.9886 23.8071 30.8266C25.911 29.8718 28.1584 29.3062 30.4572 29.2302ZM38.1929 30.8266C36.0889 29.8718 33.8416 29.3062 31.5428 29.2302V38.5339C32.062 38.5181 32.5795 38.4903 33.0866 38.4309C35.1016 36.6468 36.9069 33.9886 38.1929 30.8266ZM22.8232 31.3072C23.9117 33.9654 25.3621 36.2962 27.0303 38.1047C23.9896 37.4094 21.2418 35.9384 19.0062 33.8992C20.1835 32.8776 21.4667 32.0186 22.8232 31.3072ZM42.9938 33.8992C41.8165 32.8776 40.5333 32.0186 39.1768 31.3072C38.0883 33.9654 36.6379 36.2962 34.9697 38.1047C38.0104 37.4094 40.7582 35.9384 42.9938 33.8992Z"/>
</mask>
<path fill-rule="evenodd" clip-rule="evenodd" d="M31 1.19891C20.513 1.19891 12 9.81293 12 20.4243C12 30.1768 19.2011 38.2363 28.5062 39.478C28.5229 39.4845 28.5399 39.4903 28.5571 39.4951C29.3599 39.5999 30.1693 39.6496 31 39.6496C41.487 39.6496 50 31.0356 50 20.4243C50 9.81293 41.487 1.19891 31 1.19891ZM30.4572 2.31467V11.6184C28.1608 11.5416 25.9092 10.9966 23.8071 10.0391C25.0838 6.89578 26.8653 4.21896 28.8625 2.43481C29.3859 2.37195 29.9208 2.33093 30.4572 2.31467ZM33.1375 2.43481C32.6141 2.37195 32.0792 2.33093 31.5428 2.31467V11.6184C33.8392 11.5416 36.0908 10.9966 38.1929 10.0391C36.9162 6.89578 35.1347 4.21896 33.1375 2.43481ZM26.9964 2.76099C25.3398 4.56656 23.9056 6.89447 22.8232 9.54135C21.4737 8.83096 20.1954 7.96442 19.0232 6.94937C21.2477 4.92538 23.9762 3.45755 26.9964 2.76099ZM42.9767 6.94937C40.7523 4.92538 38.0237 3.45755 35.0035 2.76099C36.6602 4.56656 38.0943 6.89447 39.1768 9.54135C40.5263 8.83096 41.8045 7.96442 42.9767 6.94937ZM18.2259 7.7218C19.5101 8.84622 20.9227 9.81375 22.4161 10.5884C21.3823 13.4417 20.7667 16.6145 20.7026 19.875H13.1027C13.243 15.1393 15.1641 10.8703 18.2259 7.7218ZM48.8973 19.875C48.757 15.1393 46.8359 10.8703 43.7741 7.7218C42.4899 8.84622 41.0773 9.81375 39.5839 10.5884C40.6177 13.4417 41.2333 16.6145 41.2973 19.875H48.8973ZM23.417 11.0691C25.6359 12.069 28.0177 12.6409 30.4572 12.7169V19.875H21.7884C21.8529 16.7874 22.4425 13.7803 23.417 11.0691ZM40.2116 19.875C40.1471 16.7874 39.5575 13.7803 38.583 11.0691C36.3641 12.069 33.9822 12.6409 31.5428 12.7169V19.875H40.2116ZM13.1027 20.9736H20.7026C20.766 24.236 21.3815 27.4085 22.4161 30.2601C20.9158 31.0355 19.4978 31.9958 18.2089 33.1267C15.1548 29.9777 13.2404 25.7045 13.1027 20.9736ZM30.4572 20.9736H21.7884C21.8521 24.0574 22.445 27.0737 23.417 29.7795C25.636 28.7839 28.0176 28.2069 30.4572 28.1316V20.9736ZM31.5428 20.9736H40.2116C40.1479 24.0574 39.555 27.0737 38.583 29.7795C36.364 28.7839 33.9824 28.2069 31.5428 28.1316V20.9736ZM48.8973 20.9736H41.2973C41.2339 24.236 40.6184 27.4085 39.5839 30.2601C41.0841 31.0355 42.5021 31.9958 43.7911 33.1267C46.8452 29.9777 48.7596 25.7045 48.8973 20.9736ZM30.4572 29.2302V38.5339C29.938 38.5181 29.4205 38.4903 28.9134 38.4309C26.8984 36.6468 25.0931 33.9886 23.8071 30.8266C25.911 29.8718 28.1584 29.3062 30.4572 29.2302ZM38.1929 30.8266C36.0889 29.8718 33.8416 29.3062 31.5428 29.2302V38.5339C32.062 38.5181 32.5795 38.4903 33.0866 38.4309C35.1016 36.6468 36.9069 33.9886 38.1929 30.8266ZM22.8232 31.3072C23.9117 33.9654 25.3621 36.2962 27.0303 38.1047C23.9896 37.4094 21.2418 35.9384 19.0062 33.8992C20.1835 32.8776 21.4667 32.0186 22.8232 31.3072ZM42.9938 33.8992C41.8165 32.8776 40.5333 32.0186 39.1768 31.3072C38.0883 33.9654 36.6379 36.2962 34.9697 38.1047C38.0104 37.4094 40.7582 35.9384 42.9938 33.8992Z" fill="url(#paint2_linear)"/>
<path d="M28.5062 39.478L28.6523 39.1056L28.6072 39.0879L28.5591 39.0815L28.5062 39.478ZM28.5571 39.4951L28.4486 39.8801L28.4765 39.888L28.5053 39.8918L28.5571 39.4951ZM30.4572 11.6184L30.4438 12.0182L30.8572 12.032V11.6184H30.4572ZM30.4572 2.31467H30.8572V1.90235L30.445 1.91485L30.4572 2.31467ZM23.8071 10.0391L23.4365 9.8886L23.2921 10.2441L23.6413 10.4031L23.8071 10.0391ZM28.8625 2.43481L28.8148 2.03767L28.6898 2.05267L28.596 2.13651L28.8625 2.43481ZM31.5428 2.31467L31.555 1.91485L31.1428 1.90235V2.31467H31.5428ZM33.1375 2.43481L33.404 2.13651L33.3102 2.05267L33.1852 2.03767L33.1375 2.43481ZM31.5428 11.6184H31.1428V12.032L31.5562 12.0182L31.5428 11.6184ZM38.1929 10.0391L38.3587 10.4031L38.7079 10.2441L38.5635 9.8886L38.1929 10.0391ZM22.8232 9.54135L22.6369 9.8953L23.0267 10.1005L23.1934 9.69276L22.8232 9.54135ZM26.9964 2.76099L27.2911 3.03141L28.1627 2.0815L26.9065 2.37122L26.9964 2.76099ZM19.0232 6.94937L18.754 6.65351L18.4207 6.95678L18.7614 7.25176L19.0232 6.94937ZM35.0035 2.76099L35.0934 2.37122L33.8373 2.0815L34.7088 3.03141L35.0035 2.76099ZM42.9767 6.94937L43.2386 7.25176L43.5793 6.95678L43.2459 6.65351L42.9767 6.94937ZM39.1768 9.54135L38.8065 9.69276L38.9733 10.1005L39.3631 9.89531L39.1768 9.54135ZM22.4161 10.5884L22.7922 10.7247L22.9116 10.3949L22.6003 10.2334L22.4161 10.5884ZM18.2259 7.7218L18.4894 7.42086L18.2038 7.17078L17.9391 7.44293L18.2259 7.7218ZM20.7026 19.875V20.275H21.0949L21.1026 19.8828L20.7026 19.875ZM13.1027 19.875L12.7028 19.8631L12.6906 20.275H13.1027V19.875ZM43.7741 7.7218L44.0609 7.44293L43.7962 7.17079L43.5106 7.42085L43.7741 7.7218ZM48.8973 19.875V20.275H49.3094L49.2972 19.8631L48.8973 19.875ZM39.5839 10.5884L39.3997 10.2334L39.0884 10.3949L39.2078 10.7247L39.5839 10.5884ZM41.2973 19.875L40.8974 19.8828L40.9051 20.275H41.2973V19.875ZM30.4572 12.7169H30.8572V12.3292L30.4696 12.3171L30.4572 12.7169ZM23.417 11.0691L23.5813 10.7044L23.1869 10.5266L23.0406 10.9338L23.417 11.0691ZM30.4572 19.875V20.275H30.8572V19.875H30.4572ZM21.7884 19.875L21.3885 19.8666L21.3799 20.275H21.7884V19.875ZM38.583 11.0691L38.9594 10.9338L38.8131 10.5266L38.4187 10.7044L38.583 11.0691ZM40.2116 19.875V20.275H40.6201L40.6115 19.8666L40.2116 19.875ZM31.5428 12.7169L31.5304 12.3171L31.1428 12.3292V12.7169H31.5428ZM31.5428 19.875H31.1428V20.275H31.5428V19.875ZM20.7026 20.9736L21.1026 20.9658L21.0949 20.5736H20.7026V20.9736ZM13.1027 20.9736V20.5736H12.6908L12.7028 20.9852L13.1027 20.9736ZM22.4161 30.2601L22.5997 30.6154L22.912 30.4541L22.7921 30.1237L22.4161 30.2601ZM18.2089 33.1267L17.9218 33.4052L18.1867 33.6784L18.4727 33.4274L18.2089 33.1267ZM21.7884 20.9736V20.5736H21.38L21.3885 20.9818L21.7884 20.9736ZM30.4572 20.9736H30.8572V20.5736H30.4572V20.9736ZM23.417 29.7795L23.0405 29.9147L23.1866 30.3213L23.5807 30.1444L23.417 29.7795ZM30.4572 28.1316L30.4695 28.5314L30.8572 28.5194V28.1316H30.4572ZM40.2116 20.9736L40.6115 20.9818L40.62 20.5736H40.2116V20.9736ZM31.5428 20.9736V20.5736H31.1428V20.9736H31.5428ZM38.583 29.7795L38.4193 30.1444L38.8134 30.3213L38.9595 29.9147L38.583 29.7795ZM31.5428 28.1316H31.1428V28.5194L31.5305 28.5314L31.5428 28.1316ZM41.2973 20.9736V20.5736H40.905L40.8974 20.9658L41.2973 20.9736ZM48.8973 20.9736L49.2972 20.9852L49.3092 20.5736H48.8973V20.9736ZM39.5839 30.2601L39.2079 30.1237L39.088 30.4541L39.4003 30.6154L39.5839 30.2601ZM43.7911 33.1267L43.5273 33.4274L43.8133 33.6784L44.0782 33.4052L43.7911 33.1267ZM30.4572 38.5339L30.445 38.9337L30.8572 38.9462V38.5339H30.4572ZM30.4572 29.2302H30.8572V28.8167L30.4439 28.8304L30.4572 29.2302ZM28.9134 38.4309L28.6482 38.7304L28.7422 38.8135L28.8668 38.8282L28.9134 38.4309ZM23.8071 30.8266L23.6418 30.4623L23.2918 30.6212L23.4366 30.9773L23.8071 30.8266ZM31.5428 29.2302L31.5561 28.8304L31.1428 28.8167V29.2302H31.5428ZM38.1929 30.8266L38.5634 30.9773L38.7082 30.6212L38.3582 30.4623L38.1929 30.8266ZM31.5428 38.5339H31.1428V38.9462L31.555 38.9337L31.5428 38.5339ZM33.0866 38.4309L33.1332 38.8282L33.2578 38.8135L33.3518 38.7304L33.0866 38.4309ZM27.0303 38.1047L26.9412 38.4947L28.1997 38.7824L27.3243 37.8335L27.0303 38.1047ZM22.8232 31.3072L23.1933 31.1556L23.0268 30.7488L22.6374 30.9529L22.8232 31.3072ZM19.0062 33.8992L18.7441 33.5971L18.4045 33.8917L18.7367 34.1947L19.0062 33.8992ZM39.1768 31.3072L39.3626 30.9529L38.9732 30.7488L38.8067 31.1556L39.1768 31.3072ZM42.9938 33.8992L43.2633 34.1947L43.5955 33.8917L43.2559 33.5971L42.9938 33.8992ZM34.9697 38.1047L34.6757 37.8335L33.8003 38.7824L35.0588 38.4947L34.9697 38.1047ZM12.4 20.4243C12.4 10.0294 20.7383 1.59891 31 1.59891V0.798914C20.2877 0.798914 11.6 9.59647 11.6 20.4243H12.4ZM28.5591 39.0815C19.4531 37.8664 12.4 29.9767 12.4 20.4243H11.6C11.6 30.3768 18.9491 38.6062 28.4533 39.8745L28.5591 39.0815ZM28.6657 39.1101C28.6616 39.109 28.6572 39.1075 28.6523 39.1056L28.3601 39.8503C28.3887 39.8615 28.4182 39.8715 28.4486 39.8801L28.6657 39.1101ZM31 39.2496C30.1854 39.2496 29.3933 39.2009 28.6089 39.0985L28.5053 39.8918C29.3264 39.999 30.1531 40.0496 31 40.0496V39.2496ZM49.6 20.4243C49.6 30.8192 41.2617 39.2496 31 39.2496V40.0496C41.7123 40.0496 50.4 31.2521 50.4 20.4243H49.6ZM31 1.59891C41.2617 1.59891 49.6 10.0294 49.6 20.4243H50.4C50.4 9.59647 41.7123 0.798914 31 0.798914V1.59891ZM30.8572 11.6184V2.31467H30.0572V11.6184H30.8572ZM23.6413 10.4031C25.7895 11.3816 28.0927 11.9396 30.4438 12.0182L30.4705 11.2186C28.2289 11.1437 26.029 10.6116 23.9729 9.6751L23.6413 10.4031ZM28.596 2.13651C26.5429 3.97057 24.7303 6.70313 23.4365 9.8886L24.1777 10.1896C25.4373 7.08843 27.1877 4.46736 29.129 2.73312L28.596 2.13651ZM30.445 1.91485C29.8964 1.93149 29.3497 1.97342 28.8148 2.03767L28.9102 2.83196C29.4221 2.77047 29.9451 2.73038 30.4693 2.71448L30.445 1.91485ZM31.5307 2.71448C32.0548 2.73038 32.5779 2.77047 33.0898 2.83196L33.1852 2.03767C32.6503 1.97342 32.1035 1.93149 31.555 1.91485L31.5307 2.71448ZM31.9428 11.6184V2.31467H31.1428V11.6184H31.9428ZM38.0271 9.6751C35.971 10.6116 33.7711 11.1437 31.5295 11.2186L31.5562 12.0182C33.9073 11.9396 36.2105 11.3816 38.3587 10.4031L38.0271 9.6751ZM32.871 2.73312C34.8123 4.46736 36.5627 7.08843 37.8223 10.1896L38.5635 9.8886C37.2697 6.70313 35.4571 3.97057 33.404 2.13651L32.871 2.73312ZM23.1934 9.69276C24.2608 7.0827 25.6713 4.79692 27.2911 3.03141L26.7017 2.49056C25.0083 4.3362 23.5505 6.70624 22.4529 9.38994L23.1934 9.69276ZM18.7614 7.25176C19.9572 8.28725 21.2609 9.17098 22.6369 9.8953L23.0095 9.1874C21.6865 8.49095 20.4337 7.64159 19.285 6.64698L18.7614 7.25176ZM26.9065 2.37122C23.8175 3.08366 21.0277 4.58477 18.754 6.65351L19.2924 7.24523C21.4677 5.266 24.1349 3.83144 27.0863 3.15075L26.9065 2.37122ZM34.9136 3.15075C37.865 3.83144 40.5322 5.266 42.7076 7.24523L43.2459 6.65351C40.9723 4.58477 38.1825 3.08366 35.0934 2.37122L34.9136 3.15075ZM39.547 9.38994C38.4495 6.70624 36.9917 4.3362 35.2983 2.49056L34.7088 3.03141C36.3287 4.79692 37.7391 7.0827 38.8065 9.69276L39.547 9.38994ZM42.7149 6.64698C41.5663 7.64159 40.3135 8.49095 38.9904 9.18739L39.3631 9.89531C40.7391 9.17098 42.0427 8.28724 43.2386 7.25176L42.7149 6.64698ZM22.6003 10.2334C21.136 9.47379 19.7499 8.52458 18.4894 7.42086L17.9624 8.02274C19.2702 9.16787 20.7094 10.1537 22.2319 10.9435L22.6003 10.2334ZM21.1026 19.8828C21.1658 16.6668 21.7731 13.5374 22.7922 10.7247L22.04 10.4522C20.9915 13.3461 20.3677 16.5622 20.3027 19.8671L21.1026 19.8828ZM13.1027 20.275H20.7026V19.475H13.1027V20.275ZM17.9391 7.44293C14.8095 10.6612 12.8463 15.0248 12.7028 19.8631L13.5025 19.8868C13.6398 15.2538 15.5188 11.0793 18.5127 8.00067L17.9391 7.44293ZM43.4873 8.00067C46.4812 11.0793 48.3602 15.2538 48.4975 19.8868L49.2972 19.8631C49.1537 15.0248 47.1905 10.6612 44.0609 7.44293L43.4873 8.00067ZM39.7681 10.9435C41.2907 10.1537 42.7297 9.16787 44.0376 8.02275L43.5106 7.42085C42.25 8.52458 40.864 9.47379 39.3997 10.2334L39.7681 10.9435ZM41.6972 19.8671C41.6323 16.5622 41.0085 13.3461 39.96 10.4522L39.2078 10.7247C40.2269 13.5374 40.8342 16.6668 40.8974 19.8828L41.6972 19.8671ZM48.8973 19.475H41.2973V20.275H48.8973V19.475ZM30.4696 12.3171C28.0848 12.2428 25.7544 11.6837 23.5813 10.7044L23.2527 11.4337C25.5173 12.4543 27.9506 13.039 30.4447 13.1168L30.4696 12.3171ZM30.8572 19.875V12.7169H30.0572V19.875H30.8572ZM21.7884 20.275H30.4572V19.475H21.7884V20.275ZM23.0406 10.9338C22.0519 13.6844 21.4539 16.7343 21.3885 19.8666L22.1883 19.8833C22.2519 16.8405 22.8331 13.8762 23.7934 11.2044L23.0406 10.9338ZM38.2066 11.2044C39.1669 13.8762 39.7481 16.8405 39.8117 19.8833L40.6115 19.8666C40.5461 16.7343 39.9481 13.6844 38.9594 10.9338L38.2066 11.2044ZM31.5553 13.1168C34.0493 13.039 36.4827 12.4543 38.7473 11.4337L38.4187 10.7044C36.2456 11.6837 33.9151 12.2428 31.5304 12.3171L31.5553 13.1168ZM31.9428 19.875V12.7169H31.1428V19.875H31.9428ZM40.2116 19.475H31.5428V20.275H40.2116V19.475ZM20.7026 20.5736H13.1027V21.3736H20.7026V20.5736ZM22.7921 30.1237C21.7723 27.3129 21.1651 24.1837 21.1026 20.9658L20.3027 20.9813C20.3669 24.2882 20.9907 27.5042 22.0401 30.3965L22.7921 30.1237ZM18.4727 33.4274C19.7367 32.3183 21.1277 31.3762 22.5997 30.6154L22.2324 29.9048C20.7039 30.6947 19.2589 31.6733 17.9451 32.8261L18.4727 33.4274ZM12.7028 20.9852C12.8435 25.8185 14.7998 30.1862 17.9218 33.4052L18.4961 32.8483C15.5098 29.7692 13.6372 25.5905 13.5025 20.9619L12.7028 20.9852ZM21.7884 21.3736H30.4572V20.5736H21.7884V21.3736ZM23.7934 29.6443C22.8356 26.9777 22.251 24.0042 22.1883 20.9653L21.3885 20.9818C21.4531 24.1105 22.0545 27.1697 23.0405 29.9147L23.7934 29.6443ZM30.4448 27.7318C27.95 27.8088 25.5171 28.3988 23.2533 29.4145L23.5807 30.1444C25.7548 29.169 28.0852 28.605 30.4695 28.5314L30.4448 27.7318ZM30.0572 20.9736V28.1316H30.8572V20.9736H30.0572ZM40.2116 20.5736H31.5428V21.3736H40.2116V20.5736ZM38.9595 29.9147C39.9455 27.1697 40.5469 24.1105 40.6115 20.9818L39.8117 20.9653C39.749 24.0042 39.1644 26.9777 38.2066 29.6443L38.9595 29.9147ZM31.5305 28.5314C33.9148 28.605 36.2452 29.169 38.4193 30.1444L38.7467 29.4145C36.4829 28.3988 34.05 27.8088 31.5552 27.7318L31.5305 28.5314ZM31.1428 20.9736V28.1316H31.9428V20.9736H31.1428ZM41.2973 21.3736H48.8973V20.5736H41.2973V21.3736ZM39.9599 30.3965C41.0092 27.5042 41.633 24.2882 41.6972 20.9813L40.8974 20.9658C40.8349 24.1837 40.2276 27.3129 39.2079 30.1237L39.9599 30.3965ZM44.0549 32.8261C42.7411 31.6733 41.296 30.6947 39.7676 29.9048L39.4003 30.6154C40.8722 31.3762 42.2632 32.3183 43.5273 33.4274L44.0549 32.8261ZM48.4975 20.9619C48.3628 25.5905 46.4902 29.7692 43.5039 32.8483L44.0782 33.4052C47.2001 30.1862 49.1565 25.8185 49.2972 20.9852L48.4975 20.9619ZM30.8572 38.5339V29.2302H30.0572V38.5339H30.8572ZM28.8668 38.8282C29.3901 38.8895 29.9204 38.9177 30.445 38.9337L30.4693 38.1341C29.9556 38.1184 29.4508 38.0911 28.96 38.0336L28.8668 38.8282ZM23.4366 30.9773C24.7407 34.1838 26.578 36.8973 28.6482 38.7304L29.1786 38.1314C27.2188 36.3962 25.4456 33.7934 24.1777 30.6759L23.4366 30.9773ZM30.4439 28.8304C28.088 28.9083 25.7891 29.4879 23.6418 30.4623L23.9724 31.1908C26.0329 30.2557 28.2289 29.7041 30.4704 29.6299L30.4439 28.8304ZM31.5296 29.6299C33.7711 29.7041 35.967 30.2557 38.0276 31.1908L38.3582 30.4623C36.2108 29.4879 33.912 28.9083 31.5561 28.8304L31.5296 29.6299ZM31.9428 38.5339V29.2302H31.1428V38.5339H31.9428ZM33.04 38.0336C32.5492 38.0911 32.0444 38.1184 31.5307 38.1341L31.555 38.9337C32.0796 38.9177 32.6099 38.8895 33.1332 38.8282L33.04 38.0336ZM37.8223 30.6759C36.5544 33.7934 34.7812 36.3962 32.8214 38.1314L33.3518 38.7304C35.422 36.8973 37.2593 34.1838 38.5634 30.9773L37.8223 30.6759ZM27.3243 37.8335C25.6927 36.0647 24.2663 33.7759 23.1933 31.1556L22.453 31.4588C23.557 34.1548 25.0315 36.5278 26.7363 38.3759L27.3243 37.8335ZM18.7367 34.1947C21.022 36.2794 23.8316 37.7836 26.9412 38.4947L27.1195 37.7148C24.1475 37.0352 21.4615 35.5975 19.2758 33.6036L18.7367 34.1947ZM22.6374 30.9529C21.2554 31.6777 19.9463 32.5538 18.7441 33.5971L19.2684 34.2013C20.4207 33.2013 21.6779 32.3594 23.009 31.6614L22.6374 30.9529ZM38.991 31.6614C40.3221 32.3594 41.5793 33.2013 42.7316 34.2013L43.2559 33.5971C42.0537 32.5538 40.7446 31.6777 39.3626 30.9529L38.991 31.6614ZM35.2637 38.3759C36.9685 36.5278 38.443 34.1548 39.547 31.4588L38.8067 31.1556C37.7337 33.7759 36.3073 36.0647 34.6757 37.8335L35.2637 38.3759ZM42.7242 33.6036C40.5385 35.5975 37.8525 37.0352 34.8805 37.7148L35.0588 38.4947C38.1684 37.7836 40.978 36.2794 43.2633 34.1947L42.7242 33.6036Z" fill="url(#paint3_linear)" mask="url(#path-3-outside-1)"/>
<defs>
<linearGradient id="paint0_linear" x1="33.6152" y1="-34.5213" x2="-31.5246" y2="-2.4081" gradientUnits="userSpaceOnUse">
<stop stop-color="#2C7DBC"/>
<stop offset="1" stop-color="#7CCBC5"/>
</linearGradient>
<linearGradient id="paint1_linear" x1="50.9495" y1="-11.3988" x2="4.21847" y2="21.4479" gradientUnits="userSpaceOnUse">
<stop stop-color="#2C7DBC"/>
<stop offset="1" stop-color="#7CCBC5"/>
</linearGradient>
<linearGradient id="paint2_linear" x1="28.9177" y1="-14.1365" x2="-2.60483" y2="22.9863" gradientUnits="userSpaceOnUse">
<stop stop-color="#2C7DBC"/>
<stop offset="1" stop-color="#7CCBC5"/>
</linearGradient>
<linearGradient id="paint3_linear" x1="25.4557" y1="-10.0141" x2="0.090205" y2="26.7421" gradientUnits="userSpaceOnUse">
<stop stop-color="#2C7DBC"/>
<stop offset="1" stop-color="#7CCBC5"/>
</linearGradient>
</defs>
</svg>
