<svg width="193" height="193" viewBox="0 0 193 193" fill="none" xmlns="http://www.w3.org/2000/svg">
<path d="M192 96.5C192 149.243 149.243 192 96.5 192C43.7568 192 1 149.243 1 96.5C1 43.7568 43.7568 1 96.5 1C149.243 1 192 43.7568 192 96.5Z" stroke="white" stroke-width="2"/>
<path d="M131 57.1993C131 56.5361 130.472 56 129.82 56C124.957 56 121 59.9482 121 64.8007C121 65.4639 121.528 66 122.18 66C122.831 66 123.359 65.4639 123.359 64.8007C123.359 61.271 126.257 58.3987 129.82 58.3987C130.472 58.3987 131 57.8626 131 57.1993Z" fill="white"/>
<path fill-rule="evenodd" clip-rule="evenodd" d="M64.6597 145C73.2943 145 80.3195 137.838 80.3195 129.035C80.3195 120.645 73.9343 113.763 65.8607 113.134V90.7125C65.8607 82.2699 72.5761 75.4004 80.8299 75.4004C89.0837 75.4004 95.7991 82.2699 95.7991 90.7125C95.7991 90.725 95.8024 90.7363 95.8057 90.7476C95.8087 90.7579 95.8117 90.7682 95.8123 90.7797C95.9564 100.42 103.682 108.22 113.17 108.22C122.749 108.22 130.541 100.275 130.541 90.5073V80.866C138.615 80.2372 145 73.3546 145 64.9648C145 56.1623 137.975 49 129.34 49C120.706 49 113.681 56.1623 113.681 64.9648C113.681 73.3546 120.066 80.2372 128.139 80.866V90.5073C128.139 98.951 121.424 105.821 113.17 105.821C104.915 105.821 98.2009 98.951 98.2009 90.5073C98.2009 90.4947 98.1976 90.4835 98.1943 90.4721C98.1913 90.4618 98.1883 90.4515 98.1877 90.4401C98.0436 80.8 90.3194 73.0006 80.8299 73.0006C71.2515 73.0006 63.4589 80.9464 63.4589 90.7125V113.134C55.3852 113.763 49 120.645 49 129.035C49 137.839 56.0253 145 64.6597 145ZM116.082 64.9648C116.082 57.4857 122.029 51.3998 129.34 51.3998C136.651 51.3998 142.598 57.4846 142.598 64.9648C142.598 72.4426 136.651 78.5286 129.34 78.5286C122.029 78.5286 116.082 72.4438 116.082 64.9648ZM77.9177 129.036C77.9177 121.557 71.9696 115.473 64.6597 115.473C57.3499 115.473 51.4018 121.557 51.4018 129.036C51.4018 136.517 57.3486 142.601 64.6597 142.601C71.9708 142.601 77.9177 136.515 77.9177 129.036Z" fill="white"/>
<path d="M58.1795 130C58.8306 130 59.359 129.464 59.359 128.801C59.359 125.271 62.2571 122.399 65.8205 122.399C66.4716 122.399 67 121.863 67 121.199C67 120.536 66.4716 120 65.8205 120C60.9573 120 57 123.948 57 128.801C57 129.463 57.5284 130 58.1795 130Z" fill="white"/>
</svg>
