<svg width="68" height="56" viewBox="0 0 68 56" fill="none" xmlns="http://www.w3.org/2000/svg">
<mask id="path-1-outside-1" maskUnits="userSpaceOnUse" x="0" y="0" width="68" height="56" fill="black">
<rect fill="white" width="68" height="56"/>
<path fill-rule="evenodd" clip-rule="evenodd" d="M25.9105 11.3071L21.7973 7.50989C22.1347 7.17596 22.4332 6.89658 22.6899 6.65616L22.6929 6.65341L22.6932 6.65314C23.393 5.99799 23.783 5.63293 23.8089 5.24365C23.8416 4.75378 23.2979 4.22552 22.07 3.03259C21.5786 2.55508 20.9775 1.97107 20.2599 1.24039C19.954 0.925293 19.447 0.917236 19.1249 1.23233L15.374 4.94876C14.6254 5.69205 15.7523 6.83929 16.5009 6.09601L19.6804 2.9451L21.8778 5.1669L5.12732 21.7697L2.93793 19.5479L6.11737 16.397C6.87396 15.6457 5.73901 14.5065 4.99048 15.2498L1.2395 18.9662C0.925598 19.2732 0.917542 19.7903 1.23145 20.1054C1.91168 20.7982 2.46368 21.3816 2.91998 21.8639C4.17883 23.1943 4.70929 23.755 5.19446 23.7182C5.54779 23.6914 5.87701 23.3478 6.44598 22.754L6.44635 22.7536C6.52722 22.6692 6.61298 22.5797 6.70428 22.4854C6.83459 22.3508 6.97626 22.2063 7.13159 22.0525C8.88086 23.2028 9.26196 24.8875 9.7002 26.8245C10.1392 28.7647 10.6354 30.958 12.6212 33.121C10.6572 36.078 13.1041 40.0449 16.686 39.4875C16.2836 42.2586 18.642 44.6097 21.4029 44.1815C20.9924 46.9446 23.3589 49.2957 26.1117 48.8675C25.5483 52.7132 30.0558 55.0804 32.8892 52.592L34.1207 53.8039C36.5194 56.1953 40.6648 54.7976 41.0994 51.4124L43.0635 53.3757C46.3798 56.672 51.161 53.6423 50.2997 49.9097C53.8012 50.2894 56.9082 46.1124 53.117 42.3475C55.7491 42.0082 58.6951 38.4937 54.9764 34.7934C58.4233 30.6923 58.9858 27.4997 59.5459 24.3208V24.3204C59.7195 23.335 59.893 22.3509 60.152 21.3415C60.5839 21.7697 60.9385 22.1438 61.2388 22.4604C61.9941 23.257 62.4048 23.6902 62.8326 23.7077C63.3426 23.7285 63.8766 23.1583 65.0475 21.9081L65.0479 21.9079C65.5098 21.4147 66.0708 20.8157 66.7686 20.1054C67.0825 19.7903 67.0744 19.2732 66.7605 18.9662L63.0095 15.2498C62.261 14.5065 61.134 15.6457 61.8826 16.397L65.0621 19.5479L62.8727 21.7697L46.1222 5.1669L48.3196 2.9451L51.4991 6.09601C52.2477 6.83929 53.3746 5.69205 52.626 4.94876L48.8751 1.23233C48.553 0.917236 48.046 0.925293 47.7401 1.24039C47.0165 1.97748 46.4043 2.56384 45.9034 3.04355C44.1587 4.71439 43.7648 5.09161 44.7216 6.03946C41.6146 9.08533 40.8982 9.14188 40.1818 9.19843C38.3253 9.3486 36.7617 10.8022 34.9911 12.4482C34.6661 12.7503 34.334 13.059 33.9919 13.3673C32.2331 12.2107 30.5232 12.154 29.0518 12.1051C27.7892 12.0633 26.7023 12.0272 25.9105 11.3071ZM20.6543 8.64905C21.2017 9.10959 22.0066 9.86902 22.8438 10.6608C23.5198 11.291 24.2121 11.9535 24.7997 12.4786C26.1666 13.649 27.5454 13.6826 28.9772 13.7174C30.1843 13.7468 31.4291 13.7771 32.7363 14.4904L24.3167 22.0768C23.4877 22.8362 23.0289 23.8622 22.9725 24.9125C22.731 29.3076 28.3977 30.5034 30.0558 27.8938L36.0687 22.2383C36.1848 22.1752 36.4689 22.2619 36.8983 22.3929C38.6117 22.9159 42.6375 24.1445 47.5228 19.3702C48.2794 18.6269 47.1605 17.4716 46.4039 18.2149C42.4406 22.0878 39.5909 21.3951 37.5781 20.9058C36.6517 20.6806 35.9027 20.4985 35.304 20.8245C34.1765 21.4411 31.9166 23.7231 29.7542 25.9065L29.7527 25.908C29.3375 26.3273 28.9258 26.7429 28.5265 27.1424C26.5544 29.1218 22.8115 25.5508 25.4034 23.2644C27.2627 21.6631 29.092 19.9647 30.9232 18.2644L30.9244 18.2633C33.112 16.2321 35.3022 14.1984 37.5497 12.3251C39.2477 10.8864 39.9021 10.8238 40.5684 10.76C41.4625 10.6745 42.378 10.5869 45.8646 7.17056L58.8642 20.065C58.4917 21.1119 58.3022 22.251 58.0975 23.4815C57.6165 26.3721 57.0516 29.7668 53.8334 33.6543L46.7259 26.593C45.9773 25.8417 44.8504 26.9889 45.599 27.7322L54.3566 36.4578C56.715 38.8008 53.1572 42.3799 50.8229 40.045L42.0573 31.3194C41.3087 30.5761 40.1738 31.7153 40.9224 32.4666L52.5133 44.0199C54.8557 46.3629 51.3301 49.9097 48.9716 47.599C46.6927 45.4011 44.4411 43.1346 42.1945 40.8732L42.1905 40.8691C40.9867 39.6573 39.7843 38.4471 38.58 37.2495C37.8314 36.4982 36.7045 37.6454 37.4531 38.3887L47.7401 48.6412C50.6539 51.5498 46.7661 54.7895 44.1984 52.2284L34.5715 42.6465C33.8229 41.8951 32.696 43.0423 33.4446 43.7856L39.0147 49.3361C40.9143 51.5094 37.5819 54.9834 35.2476 52.6647L28.0355 45.4984L14.2874 32.5232C12.1583 30.4747 11.6689 28.298 11.2136 26.2726C10.7549 24.2318 10.3307 22.3447 8.29871 20.8972L20.6543 8.64905ZM20.107 40.2146L18.6017 38.8088C17.2253 41.1195 19.9782 43.7129 22.1917 42.1698L20.107 40.2146ZM17.3058 37.5969C16.0582 36.4254 14.8589 35.2944 13.7963 34.2845C12.6936 36.5224 15.1567 38.8331 17.3058 37.5969ZM26.9086 46.6537L23.4233 43.3251C21.749 45.6842 24.7675 48.5605 27.0294 46.7668L26.9086 46.6537ZM28.1965 47.9222C26.3854 50.2652 29.4361 53.2949 31.7462 51.4528L28.1965 47.9222Z"/>
</mask>
<path fill-rule="evenodd" clip-rule="evenodd" d="M25.9105 11.3071L21.7973 7.50989C22.1347 7.17596 22.4332 6.89658 22.6899 6.65616L22.6929 6.65341L22.6932 6.65314C23.393 5.99799 23.783 5.63293 23.8089 5.24365C23.8416 4.75378 23.2979 4.22552 22.07 3.03259C21.5786 2.55508 20.9775 1.97107 20.2599 1.24039C19.954 0.925293 19.447 0.917236 19.1249 1.23233L15.374 4.94876C14.6254 5.69205 15.7523 6.83929 16.5009 6.09601L19.6804 2.9451L21.8778 5.1669L5.12732 21.7697L2.93793 19.5479L6.11737 16.397C6.87396 15.6457 5.73901 14.5065 4.99048 15.2498L1.2395 18.9662C0.925598 19.2732 0.917542 19.7903 1.23145 20.1054C1.91168 20.7982 2.46368 21.3816 2.91998 21.8639C4.17883 23.1943 4.70929 23.755 5.19446 23.7182C5.54779 23.6914 5.87701 23.3478 6.44598 22.754L6.44635 22.7536C6.52722 22.6692 6.61298 22.5797 6.70428 22.4854C6.83459 22.3508 6.97626 22.2063 7.13159 22.0525C8.88086 23.2028 9.26196 24.8875 9.7002 26.8245C10.1392 28.7647 10.6354 30.958 12.6212 33.121C10.6572 36.078 13.1041 40.0449 16.686 39.4875C16.2836 42.2586 18.642 44.6097 21.4029 44.1815C20.9924 46.9446 23.3589 49.2957 26.1117 48.8675C25.5483 52.7132 30.0558 55.0804 32.8892 52.592L34.1207 53.8039C36.5194 56.1953 40.6648 54.7976 41.0994 51.4124L43.0635 53.3757C46.3798 56.672 51.161 53.6423 50.2997 49.9097C53.8012 50.2894 56.9082 46.1124 53.117 42.3475C55.7491 42.0082 58.6951 38.4937 54.9764 34.7934C58.4233 30.6923 58.9858 27.4997 59.5459 24.3208V24.3204C59.7195 23.335 59.893 22.3509 60.152 21.3415C60.5839 21.7697 60.9385 22.1438 61.2388 22.4604C61.9941 23.257 62.4048 23.6902 62.8326 23.7077C63.3426 23.7285 63.8766 23.1583 65.0475 21.9081L65.0479 21.9079C65.5098 21.4147 66.0708 20.8157 66.7686 20.1054C67.0825 19.7903 67.0744 19.2732 66.7605 18.9662L63.0095 15.2498C62.261 14.5065 61.134 15.6457 61.8826 16.397L65.0621 19.5479L62.8727 21.7697L46.1222 5.1669L48.3196 2.9451L51.4991 6.09601C52.2477 6.83929 53.3746 5.69205 52.626 4.94876L48.8751 1.23233C48.553 0.917236 48.046 0.925293 47.7401 1.24039C47.0165 1.97748 46.4043 2.56384 45.9034 3.04355C44.1587 4.71439 43.7648 5.09161 44.7216 6.03946C41.6146 9.08533 40.8982 9.14188 40.1818 9.19843C38.3253 9.3486 36.7617 10.8022 34.9911 12.4482C34.6661 12.7503 34.334 13.059 33.9919 13.3673C32.2331 12.2107 30.5232 12.154 29.0518 12.1051C27.7892 12.0633 26.7023 12.0272 25.9105 11.3071ZM20.6543 8.64905C21.2017 9.10959 22.0066 9.86902 22.8438 10.6608C23.5198 11.291 24.2121 11.9535 24.7997 12.4786C26.1666 13.649 27.5454 13.6826 28.9772 13.7174C30.1843 13.7468 31.4291 13.7771 32.7363 14.4904L24.3167 22.0768C23.4877 22.8362 23.0289 23.8622 22.9725 24.9125C22.731 29.3076 28.3977 30.5034 30.0558 27.8938L36.0687 22.2383C36.1848 22.1752 36.4689 22.2619 36.8983 22.3929C38.6117 22.9159 42.6375 24.1445 47.5228 19.3702C48.2794 18.6269 47.1605 17.4716 46.4039 18.2149C42.4406 22.0878 39.5909 21.3951 37.5781 20.9058C36.6517 20.6806 35.9027 20.4985 35.304 20.8245C34.1765 21.4411 31.9166 23.7231 29.7542 25.9065L29.7527 25.908C29.3375 26.3273 28.9258 26.7429 28.5265 27.1424C26.5544 29.1218 22.8115 25.5508 25.4034 23.2644C27.2627 21.6631 29.092 19.9647 30.9232 18.2644L30.9244 18.2633C33.112 16.2321 35.3022 14.1984 37.5497 12.3251C39.2477 10.8864 39.9021 10.8238 40.5684 10.76C41.4625 10.6745 42.378 10.5869 45.8646 7.17056L58.8642 20.065C58.4917 21.1119 58.3022 22.251 58.0975 23.4815C57.6165 26.3721 57.0516 29.7668 53.8334 33.6543L46.7259 26.593C45.9773 25.8417 44.8504 26.9889 45.599 27.7322L54.3566 36.4578C56.715 38.8008 53.1572 42.3799 50.8229 40.045L42.0573 31.3194C41.3087 30.5761 40.1738 31.7153 40.9224 32.4666L52.5133 44.0199C54.8557 46.3629 51.3301 49.9097 48.9716 47.599C46.6927 45.4011 44.4411 43.1346 42.1945 40.8732L42.1905 40.8691C40.9867 39.6573 39.7843 38.4471 38.58 37.2495C37.8314 36.4982 36.7045 37.6454 37.4531 38.3887L47.7401 48.6412C50.6539 51.5498 46.7661 54.7895 44.1984 52.2284L34.5715 42.6465C33.8229 41.8951 32.696 43.0423 33.4446 43.7856L39.0147 49.3361C40.9143 51.5094 37.5819 54.9834 35.2476 52.6647L28.0355 45.4984L14.2874 32.5232C12.1583 30.4747 11.6689 28.298 11.2136 26.2726C10.7549 24.2318 10.3307 22.3447 8.29871 20.8972L20.6543 8.64905ZM20.107 40.2146L18.6017 38.8088C17.2253 41.1195 19.9782 43.7129 22.1917 42.1698L20.107 40.2146ZM17.3058 37.5969C16.0582 36.4254 14.8589 35.2944 13.7963 34.2845C12.6936 36.5224 15.1567 38.8331 17.3058 37.5969ZM26.9086 46.6537L23.4233 43.3251C21.749 45.6842 24.7675 48.5605 27.0294 46.7668L26.9086 46.6537ZM28.1965 47.9222C26.3854 50.2652 29.4361 53.2949 31.7462 51.4528L28.1965 47.9222Z" fill="url(#paint0_linear)"/>
<path d="M21.7973 7.50989L21.6566 7.36774L21.5079 7.51491L21.6616 7.65684L21.7973 7.50989ZM25.9105 11.3071L25.7749 11.4541L25.776 11.4551L25.9105 11.3071ZM22.6899 6.65616L22.8267 6.80214L22.8267 6.80207L22.6899 6.65616ZM22.6929 6.65341L22.5729 6.49341L22.5641 6.5L22.5561 6.5075L22.6929 6.65341ZM22.6932 6.65314L22.8132 6.81314L22.822 6.80659L22.8299 6.79914L22.6932 6.65314ZM23.8089 5.24365L23.6093 5.23035L23.6093 5.23035L23.8089 5.24365ZM22.07 3.03259L21.9306 3.17603L21.9306 3.17604L22.07 3.03259ZM20.2599 1.24039L20.1164 1.37969L20.1172 1.38052L20.2599 1.24039ZM19.1249 1.23233L18.9851 1.08938L18.9842 1.09026L19.1249 1.23233ZM15.374 4.94876L15.2333 4.80669L15.2331 4.80684L15.374 4.94876ZM16.5009 6.09601L16.3601 5.95395L16.36 5.95408L16.5009 6.09601ZM19.6804 2.9451L19.8226 2.80446L19.6818 2.66212L19.5396 2.80304L19.6804 2.9451ZM21.8778 5.1669L22.0186 5.30895L22.1605 5.16831L22.02 5.02626L21.8778 5.1669ZM5.12732 21.7697L4.98486 21.9101L5.12565 22.053L5.26811 21.9118L5.12732 21.7697ZM2.93793 19.5479L2.79714 19.4059L2.65549 19.5463L2.79547 19.6883L2.93793 19.5479ZM6.11737 16.397L6.25815 16.5391L6.2583 16.5389L6.11737 16.397ZM4.99048 15.2498L5.13124 15.3919L5.1314 15.3917L4.99048 15.2498ZM1.2395 18.9662L1.37935 19.1092L1.38027 19.1083L1.2395 18.9662ZM1.23145 20.1054L1.37416 19.9653L1.37313 19.9643L1.23145 20.1054ZM2.91998 21.8639L2.7747 22.0013L2.77471 22.0014L2.91998 21.8639ZM5.19446 23.7182L5.20957 23.9176L5.20958 23.9176L5.19446 23.7182ZM6.44598 22.754L6.30453 22.6125L6.30157 22.6156L6.44598 22.754ZM6.44635 22.7536L6.5878 22.8951L6.59077 22.892L6.44635 22.7536ZM6.70428 22.4854L6.5606 22.3463L6.56058 22.3463L6.70428 22.4854ZM7.13159 22.0525L7.24148 21.8854L7.10604 21.7963L6.99086 21.9104L7.13159 22.0525ZM9.7002 26.8245L9.50513 26.8686L9.7002 26.8245ZM12.6212 33.121L12.7878 33.2317L12.8744 33.1012L12.7685 32.9858L12.6212 33.121ZM16.686 39.4875L16.884 39.5162L16.9229 39.2482L16.6553 39.2898L16.686 39.4875ZM21.4029 44.1815L21.6007 44.2109L21.6406 43.9422L21.3722 43.9839L21.4029 44.1815ZM26.1117 48.8675L26.3096 48.8965L26.3489 48.6282L26.081 48.6698L26.1117 48.8675ZM32.8892 52.592L33.0295 52.4494L32.897 52.319L32.7572 52.4417L32.8892 52.592ZM34.1207 53.8039L34.2619 53.6622L34.261 53.6613L34.1207 53.8039ZM41.0994 51.4124L41.2408 51.271L40.9529 50.9832L40.9011 51.3869L41.0994 51.4124ZM43.0635 53.3757L42.9221 53.5171L42.9225 53.5175L43.0635 53.3757ZM50.2997 49.9097L50.3213 49.7108L50.0416 49.6805L50.1049 49.9546L50.2997 49.9097ZM53.117 42.3475L53.0914 42.1491L52.6861 42.2014L52.9761 42.4894L53.117 42.3475ZM54.9764 34.7934L54.8233 34.6647L54.705 34.8055L54.8353 34.9352L54.9764 34.7934ZM59.5459 24.3208L59.7429 24.3555L59.7459 24.3383V24.3208H59.5459ZM59.5459 24.3204L59.3489 24.2857L59.3459 24.3029V24.3204H59.5459ZM60.152 21.3415L60.2929 21.1995L60.0451 20.9538L59.9583 21.2918L60.152 21.3415ZM61.2388 22.4604L61.0936 22.5981L61.0936 22.5981L61.2388 22.4604ZM62.8326 23.7077L62.8244 23.9075L62.8326 23.7077ZM65.0475 21.9081L64.9275 21.7481L64.9135 21.7586L64.9015 21.7714L65.0475 21.9081ZM65.0479 21.9079L65.1679 22.0679L65.1819 22.0574L65.1938 22.0446L65.0479 21.9079ZM66.7686 20.1054L66.6269 19.9643L66.6259 19.9652L66.7686 20.1054ZM66.7605 18.9662L66.6197 19.1083L66.6207 19.1092L66.7605 18.9662ZM63.0095 15.2498L62.8686 15.3917L62.8688 15.3919L63.0095 15.2498ZM61.8826 16.397L61.7409 16.5382L61.7418 16.5391L61.8826 16.397ZM65.0621 19.5479L65.2046 19.6883L65.3446 19.5463L65.2029 19.4059L65.0621 19.5479ZM62.8727 21.7697L62.7319 21.9118L62.8743 22.053L63.0151 21.9101L62.8727 21.7697ZM46.1222 5.1669L45.98 5.02626L45.8395 5.16831L45.9814 5.30895L46.1222 5.1669ZM48.3196 2.9451L48.4604 2.80304L48.3182 2.66212L48.1774 2.80446L48.3196 2.9451ZM51.4991 6.09601L51.64 5.95408L51.6399 5.95395L51.4991 6.09601ZM52.626 4.94876L52.7669 4.80684L52.7667 4.80669L52.626 4.94876ZM48.8751 1.23233L49.0158 1.09025L49.0149 1.08938L48.8751 1.23233ZM47.7401 1.24039L47.8828 1.3805L47.8836 1.37969L47.7401 1.24039ZM45.9034 3.04355L45.7651 2.8991L45.765 2.8991L45.9034 3.04355ZM44.7216 6.03946L44.8616 6.18228L45.0066 6.0402L44.8624 5.89737L44.7216 6.03946ZM40.1818 9.19843L40.1661 8.99905L40.1657 8.99908L40.1818 9.19843ZM34.9911 12.4482L35.1273 12.5946L35.1273 12.5946L34.9911 12.4482ZM33.9919 13.3673L33.8821 13.5344L34.0111 13.6193L34.1258 13.5159L33.9919 13.3673ZM29.0518 12.1051L29.0584 11.9052H29.0584L29.0518 12.1051ZM22.8438 10.6608L22.7063 10.8061L22.7074 10.8071L22.8438 10.6608ZM20.6543 8.64905L20.7831 8.49601L20.6433 8.37838L20.5135 8.50701L20.6543 8.64905ZM24.7997 12.4786L24.6664 12.6278L24.6696 12.6305L24.7997 12.4786ZM28.9772 13.7174L28.9723 13.9173H28.9723L28.9772 13.7174ZM32.7363 14.4904L32.8701 14.6389L33.0798 14.45L32.8321 14.3148L32.7363 14.4904ZM24.3167 22.0768L24.1828 21.9282L24.1816 21.9293L24.3167 22.0768ZM22.9725 24.9125L23.1722 24.9235L23.1722 24.9232L22.9725 24.9125ZM30.0558 27.8938L29.9188 27.7481L29.9005 27.7653L29.887 27.7865L30.0558 27.8938ZM36.0687 22.2383L35.9731 22.0626L35.9504 22.0749L35.9316 22.0926L36.0687 22.2383ZM36.8983 22.3929L36.8399 22.5842L36.8399 22.5842L36.8983 22.3929ZM47.5228 19.3702L47.6626 19.5132L47.6629 19.5129L47.5228 19.3702ZM46.4039 18.2149L46.5437 18.3579L46.5441 18.3575L46.4039 18.2149ZM37.5781 20.9058L37.6254 20.7115V20.7115L37.5781 20.9058ZM35.304 20.8245L35.2083 20.6488L35.208 20.649L35.304 20.8245ZM29.7542 25.9065L29.8956 26.0479L29.8963 26.0472L29.7542 25.9065ZM29.7527 25.908L29.6113 25.7665L29.6106 25.7672L29.7527 25.908ZM28.5265 27.1424L28.385 27.001L28.3848 27.0013L28.5265 27.1424ZM25.4034 23.2644L25.2729 23.1128L25.2711 23.1144L25.4034 23.2644ZM30.9232 18.2644L30.7929 18.1124L30.7871 18.1178L30.9232 18.2644ZM30.9244 18.2633L31.0547 18.4153L31.0605 18.4099L30.9244 18.2633ZM37.5497 12.3251L37.6778 12.4787L37.679 12.4777L37.5497 12.3251ZM40.5684 10.76L40.5875 10.9591L40.5875 10.9591L40.5684 10.76ZM45.8646 7.17056L46.0055 7.02857L45.8655 6.88972L45.7247 7.02771L45.8646 7.17056ZM58.8642 20.065L59.0526 20.132L59.0952 20.0124L59.005 19.923L58.8642 20.065ZM58.0975 23.4815L58.2948 23.5143V23.5143L58.0975 23.4815ZM53.8334 33.6543L53.6924 33.7962L53.8478 33.9505L53.9874 33.7818L53.8334 33.6543ZM46.7259 26.593L46.5842 26.7342L46.5849 26.7349L46.7259 26.593ZM45.599 27.7322L45.7402 27.5905L45.7399 27.5903L45.599 27.7322ZM54.3566 36.4578L54.2154 36.5994L54.2156 36.5997L54.3566 36.4578ZM50.8229 40.045L50.9644 39.9035L50.964 39.9032L50.8229 40.045ZM42.0573 31.3194L42.1984 31.1776L42.1982 31.1774L42.0573 31.3194ZM40.9224 32.4666L40.7807 32.6078L40.7812 32.6083L40.9224 32.4666ZM52.5133 44.0199L52.6547 43.8785L52.6545 43.8783L52.5133 44.0199ZM48.9716 47.599L49.1116 47.4562L49.1105 47.4551L48.9716 47.599ZM42.1945 40.8732L42.0515 41.0131L42.0526 41.0142L42.1945 40.8732ZM42.1905 40.8691L42.3335 40.7293L42.3324 40.7282L42.1905 40.8691ZM38.58 37.2495L38.4383 37.3907L38.439 37.3914L38.58 37.2495ZM37.4531 38.3887L37.5943 38.247L37.594 38.2468L37.4531 38.3887ZM47.7401 48.6412L47.8814 48.4997L47.8813 48.4996L47.7401 48.6412ZM44.1984 52.2284L44.3397 52.0868L44.3395 52.0867L44.1984 52.2284ZM34.5715 42.6465L34.4298 42.7876L34.4304 42.7882L34.5715 42.6465ZM33.4446 43.7856L33.5858 43.644L33.5855 43.6437L33.4446 43.7856ZM39.0147 49.3361L39.1657 49.2041L39.1559 49.1944L39.0147 49.3361ZM35.2476 52.6647L35.1067 52.8066L35.1067 52.8066L35.2476 52.6647ZM28.0355 45.4984L28.1765 45.3565L28.1728 45.353L28.0355 45.4984ZM14.2874 32.5232L14.1487 32.6673L14.1501 32.6686L14.2874 32.5232ZM11.2136 26.2726L11.0185 26.3164V26.3164L11.2136 26.2726ZM8.29871 20.8972L8.1579 20.7551L7.98927 20.9223L8.18266 21.0601L8.29871 20.8972ZM18.6017 38.8088L18.7383 38.6626L18.5569 38.4933L18.4299 38.7065L18.6017 38.8088ZM20.107 40.2146L20.2438 40.0687L20.2435 40.0684L20.107 40.2146ZM22.1917 42.1698L22.3061 42.3338L22.5085 42.1927L22.3285 42.0239L22.1917 42.1698ZM17.3058 37.5969L17.4056 37.7703L17.6394 37.6358L17.4427 37.4511L17.3058 37.5969ZM13.7963 34.2845L13.9341 34.1395L13.7371 33.9522L13.6169 34.1961L13.7963 34.2845ZM23.4233 43.3251L23.5614 43.1805L23.3941 43.0207L23.2602 43.2094L23.4233 43.3251ZM26.9086 46.6537L26.7705 46.7984L26.7719 46.7997L26.9086 46.6537ZM27.0294 46.7668L27.1536 46.9236L27.3354 46.7794L27.1661 46.6209L27.0294 46.7668ZM28.1965 47.9222L28.3375 47.7804L28.1768 47.6206L28.0382 47.7999L28.1965 47.9222ZM31.7462 51.4528L31.8709 51.6092L32.0464 51.4692L31.8873 51.311L31.7462 51.4528ZM21.6616 7.65684L25.7749 11.4541L26.0462 11.1602L21.933 7.36293L21.6616 7.65684ZM22.5532 6.51018C22.2966 6.75052 21.9962 7.03164 21.6566 7.36774L21.938 7.65204C22.2732 7.32029 22.5699 7.04263 22.8267 6.80214L22.5532 6.51018ZM22.5561 6.5075L22.5532 6.51025L22.8267 6.80207L22.8297 6.79932L22.5561 6.5075ZM22.5732 6.49314L22.5729 6.49341L22.8129 6.81341L22.8132 6.81314L22.5732 6.49314ZM23.6093 5.23035C23.6007 5.36033 23.5305 5.50803 23.3512 5.7193C23.1722 5.9303 22.9099 6.17634 22.5565 6.50714L22.8299 6.79914C23.1764 6.47478 23.4589 6.21072 23.6563 5.97809C23.8534 5.74573 23.9912 5.51626 24.0085 5.25695L23.6093 5.23035ZM21.9306 3.17604C22.5482 3.77602 22.9816 4.1975 23.2585 4.5298C23.5392 4.86663 23.6202 5.06819 23.6093 5.23035L24.0085 5.25695C24.0303 4.92924 23.8558 4.62174 23.5658 4.27374C23.272 3.92121 22.8197 3.4821 22.2094 2.88915L21.9306 3.17604ZM20.1172 1.38052C20.8366 2.11303 21.4391 2.69847 21.9306 3.17603L22.2094 2.88915C21.718 2.4117 21.1184 1.82911 20.4026 1.10025L20.1172 1.38052ZM19.2648 1.37528C19.5085 1.13685 19.8885 1.14491 20.1164 1.37969L20.4034 1.10109C20.0196 0.705678 19.3854 0.697627 18.9851 1.08938L19.2648 1.37528ZM15.5148 5.09083L19.2657 1.3744L18.9842 1.09026L15.2333 4.80669L15.5148 5.09083ZM16.36 5.95408C16.2122 6.10085 16.0575 6.14561 15.9184 6.13539C15.7741 6.12478 15.6303 6.05333 15.5187 5.9397C15.4071 5.82609 15.3375 5.68026 15.3287 5.53409C15.3202 5.39305 15.3671 5.23748 15.5149 5.09068L15.2331 4.80684C15.0067 5.03168 14.9137 5.29825 14.9294 5.55814C14.9447 5.81291 15.0632 6.0468 15.2333 6.22C15.4034 6.39318 15.635 6.51563 15.8891 6.53431C16.1485 6.55338 16.4153 6.46281 16.6418 6.23793L16.36 5.95408ZM19.5396 2.80304L16.3601 5.95395L16.6417 6.23807L19.8211 3.08716L19.5396 2.80304ZM22.02 5.02626L19.8226 2.80446L19.5382 3.08574L21.7356 5.30754L22.02 5.02626ZM5.26811 21.9118L22.0186 5.30895L21.737 5.02485L4.98653 21.6277L5.26811 21.9118ZM2.79547 19.6883L4.98486 21.9101L5.26977 21.6293L3.08038 19.4076L2.79547 19.6883ZM5.97659 16.255L2.79714 19.4059L3.07871 19.69L6.25815 16.5391L5.97659 16.255ZM5.1314 15.3917C5.27924 15.2449 5.43468 15.1995 5.57475 15.2093C5.71996 15.2195 5.86435 15.2905 5.97616 15.4036C6.08795 15.5166 6.15757 15.6618 6.16608 15.8079C6.1743 15.9489 6.12679 16.1058 5.97644 16.2551L6.2583 16.5389C6.48625 16.3126 6.58059 16.0453 6.5654 15.7846C6.55051 15.529 6.43147 15.2951 6.26053 15.1223C6.08962 14.9495 5.8572 14.8281 5.60273 14.8103C5.34311 14.7921 5.07598 14.883 4.84956 15.1079L5.1314 15.3917ZM1.38027 19.1083L5.13124 15.3919L4.84971 15.1077L1.09874 18.8241L1.38027 19.1083ZM1.37313 19.9643C1.13856 19.7288 1.14405 19.3393 1.37934 19.1092L1.09966 18.8232C0.70715 19.2071 0.696526 19.8518 1.08976 20.2466L1.37313 19.9643ZM3.06526 21.7264C2.60893 21.2441 2.05581 20.6595 1.37415 19.9653L1.08874 20.2455C1.76755 20.9369 2.31844 21.5191 2.7747 22.0013L3.06526 21.7264ZM5.17934 23.5188C5.02355 23.5306 4.82458 23.4507 4.47784 23.1522C4.13695 22.8587 3.69815 22.3953 3.06526 21.7264L2.77471 22.0014C3.40066 22.6629 3.85652 23.1451 4.21686 23.4553C4.57136 23.7605 4.8802 23.9426 5.20957 23.9176L5.17934 23.5188ZM6.30157 22.6156C6.01391 22.9159 5.79847 23.1402 5.61187 23.2946C5.42539 23.4489 5.29424 23.5101 5.17933 23.5188L5.20958 23.9176C5.44801 23.8995 5.65814 23.7755 5.86685 23.6028C6.07543 23.4303 6.30909 23.186 6.59039 22.8924L6.30157 22.6156ZM6.30493 22.6122L6.30456 22.6126L6.58741 22.8954L6.58777 22.8951L6.30493 22.6122ZM6.56058 22.3463C6.46887 22.4411 6.38279 22.5309 6.30193 22.6153L6.59077 22.892C6.67165 22.8076 6.75708 22.7184 6.84799 22.6245L6.56058 22.3463ZM6.99086 21.9104C6.83423 22.0655 6.69154 22.2111 6.5606 22.3463L6.84797 22.6245C6.97765 22.4906 7.11829 22.3472 7.27233 22.1946L6.99086 21.9104ZM9.89527 26.7804C9.45927 24.8533 9.06701 23.0859 7.24148 21.8854L7.0217 22.2196C8.69471 23.3198 9.06466 24.9218 9.50513 26.8686L9.89527 26.7804ZM12.7685 32.9858C10.8214 30.8649 10.3338 28.7185 9.89527 26.7804L9.50513 26.8686C9.94457 28.811 10.4493 31.0511 12.4738 33.2563L12.7685 32.9858ZM16.6553 39.2898C13.2499 39.8198 10.9174 36.0478 12.7878 33.2317L12.4546 33.0104C10.397 36.1083 12.9584 40.27 16.7168 39.6851L16.6553 39.2898ZM21.3722 43.9839C18.7455 44.3913 16.5007 42.1554 16.884 39.5162L16.4881 39.4587C16.0665 42.3618 18.5386 44.8282 21.4335 44.3791L21.3722 43.9839ZM26.081 48.6698C23.4617 49.0773 21.21 46.8409 21.6007 44.2109L21.2051 44.1521C20.7748 47.0483 23.2561 49.514 26.1424 49.0651L26.081 48.6698ZM32.7572 52.4417C30.062 54.8088 25.7735 52.5559 26.3096 48.8965L25.9138 48.8385C25.3231 52.8704 30.0497 55.352 33.0212 52.7423L32.7572 52.4417ZM34.261 53.6613L33.0295 52.4494L32.7489 52.7345L33.9804 53.9464L34.261 53.6613ZM40.9011 51.3869C40.4877 54.6067 36.5436 55.937 34.2619 53.6622L33.9795 53.9455C36.4952 56.4536 40.8419 54.9885 41.2978 51.4379L40.9011 51.3869ZM43.2049 53.2342L41.2408 51.271L40.958 51.5539L42.9221 53.5171L43.2049 53.2342ZM50.1049 49.9546C50.9184 53.4805 46.3867 56.3969 43.2045 53.2338L42.9225 53.5175C46.3728 56.9471 51.4036 53.8041 50.4946 49.8647L50.1049 49.9546ZM52.9761 42.4894C54.8201 44.3206 54.9602 46.2144 54.2646 47.5927C53.5611 48.9868 51.988 49.8916 50.3213 49.7108L50.2782 50.1085C52.1129 50.3075 53.8441 49.3137 54.6217 47.7729C55.4071 46.2165 55.2051 44.1393 53.2579 42.2056L52.9761 42.4894ZM54.8353 34.9352C56.6474 36.7383 56.8069 38.4565 56.2448 39.7512C55.6731 41.0679 54.34 41.9882 53.0914 42.1491L53.1426 42.5459C54.526 42.3675 55.982 41.3609 56.6117 39.9105C57.251 38.438 57.0241 36.5488 55.1174 34.6517L54.8353 34.9352ZM59.3489 24.2861C58.7907 27.4544 58.2358 30.6045 54.8233 34.6647L55.1295 34.9221C58.6108 30.78 59.1809 27.5449 59.7429 24.3555L59.3489 24.2861ZM59.3459 24.3204V24.3208H59.7459V24.3204H59.3459ZM59.9583 21.2918C59.6971 22.3098 59.5224 23.3013 59.3489 24.2857L59.7429 24.3551C59.9167 23.3687 60.0889 22.392 60.3458 21.3912L59.9583 21.2918ZM61.3839 22.3228C61.0837 22.0062 60.7271 21.6301 60.2929 21.1995L60.0112 21.4835C60.4406 21.9093 60.7934 22.2814 61.0936 22.5981L61.3839 22.3228ZM62.8407 23.5079C62.6943 23.5019 62.5275 23.4246 62.287 23.223C62.0473 23.022 61.7649 22.7246 61.3839 22.3228L61.0936 22.5981C61.468 22.9929 61.7686 23.3104 62.03 23.5295C62.2907 23.7481 62.5431 23.8961 62.8244 23.9075L62.8407 23.5079ZM64.9015 21.7714C64.3126 22.4002 63.8951 22.8456 63.5616 23.1331C63.2241 23.424 63.0143 23.515 62.8407 23.5079L62.8244 23.9075C63.1609 23.9213 63.4731 23.7375 63.8228 23.436C64.1765 23.1311 64.6115 22.6663 65.1935 22.0449L64.9015 21.7714ZM64.9279 21.7479L64.9275 21.7481L65.1675 22.0681L65.1679 22.0679L64.9279 21.7479ZM66.6259 19.9652C65.9263 20.6774 65.3638 21.2779 64.9019 21.7712L65.1938 22.0446C65.6557 21.5514 66.2153 20.954 66.9112 20.2456L66.6259 19.9652ZM66.6207 19.1092C66.856 19.3393 66.8614 19.7288 66.6269 19.9643L66.9102 20.2466C67.3035 19.8518 67.2928 19.2071 66.9003 18.8232L66.6207 19.1092ZM62.8688 15.3919L66.6197 19.1083L66.9013 18.8241L63.1503 15.1077L62.8688 15.3919ZM62.0243 16.2559C61.8758 16.1068 61.8288 15.9498 61.8373 15.8083C61.8461 15.6617 61.9157 15.5163 62.0271 15.4033C62.1385 15.2903 62.2821 15.2195 62.4264 15.2093C62.5656 15.1995 62.7206 15.2447 62.8686 15.3917L63.1504 15.1079C62.9242 14.8832 62.6576 14.7921 62.3984 14.8103C62.1443 14.8282 61.9126 14.9497 61.7422 15.1225C61.5718 15.2953 61.4533 15.5291 61.438 15.7843C61.4224 16.0444 61.5151 16.3116 61.7409 16.5382L62.0243 16.2559ZM65.2029 19.4059L62.0234 16.255L61.7418 16.5391L64.9214 19.69L65.2029 19.4059ZM63.0151 21.9101L65.2046 19.6883L64.9197 19.4076L62.7302 21.6293L63.0151 21.9101ZM45.9814 5.30895L62.7319 21.9118L63.0135 21.6277L46.263 5.02485L45.9814 5.30895ZM48.1774 2.80446L45.98 5.02626L46.2644 5.30754L48.4618 3.08574L48.1774 2.80446ZM51.6399 5.95395L48.4604 2.80304L48.1789 3.08716L51.3583 6.23807L51.6399 5.95395ZM52.4851 5.09068C52.6329 5.23748 52.6798 5.39305 52.6713 5.53409C52.6625 5.68026 52.5929 5.82609 52.4813 5.9397C52.3697 6.05333 52.2259 6.12478 52.0816 6.13539C51.9425 6.14561 51.7878 6.10085 51.64 5.95408L51.3582 6.23793C51.5846 6.46281 51.8515 6.55338 52.1109 6.53431C52.365 6.51563 52.5966 6.39318 52.7667 6.22C52.9368 6.0468 53.0553 5.81291 53.0706 5.55814C53.0863 5.29825 52.9933 5.03168 52.7669 4.80684L52.4851 5.09068ZM48.7343 1.3744L52.4852 5.09083L52.7667 4.80669L49.0158 1.09026L48.7343 1.3744ZM47.8836 1.37969C48.1115 1.14491 48.4915 1.13685 48.7352 1.37528L49.0149 1.08938C48.6146 0.697627 47.9804 0.705678 47.5966 1.10109L47.8836 1.37969ZM46.0417 3.18799C46.5427 2.70821 47.1569 2.11999 47.8828 1.38049L47.5974 1.10028C46.8762 1.83497 46.2659 2.41947 45.7651 2.8991L46.0417 3.18799ZM44.8624 5.89737C44.6285 5.66575 44.5001 5.49013 44.4454 5.33848C44.3955 5.20048 44.4012 5.06732 44.4806 4.89727C44.565 4.71667 44.7293 4.50239 44.994 4.22004C45.2568 3.93973 45.6041 3.60712 46.0417 3.18799L45.765 2.8991C45.3304 3.3154 44.9741 3.6565 44.7022 3.94646C44.4323 4.23439 44.2308 4.48694 44.1182 4.72798C44.0007 4.97957 43.9783 5.22287 44.0692 5.4744C44.1551 5.71227 44.3363 5.93925 44.5809 6.18155L44.8624 5.89737ZM40.1976 9.39781C40.3767 9.38367 40.5733 9.36853 40.8106 9.30184C41.0481 9.23507 41.3188 9.11904 41.6596 8.91054C42.3368 8.49626 43.3059 7.70738 44.8616 6.18228L44.5816 5.89664C43.0303 7.41741 42.0877 8.17974 41.4509 8.56933C41.1347 8.76277 40.8977 8.86185 40.7023 8.91677C40.5067 8.97177 40.3451 8.98491 40.1661 8.99905L40.1976 9.39781ZM35.1273 12.5946C36.0152 11.7692 36.838 11.0048 37.6685 10.4265C38.4971 9.84949 39.3182 9.46894 40.1979 9.39777L40.1657 8.99908C39.1889 9.07809 38.2999 9.49942 37.4399 10.0982C36.5818 10.6958 35.7376 11.4812 34.855 12.3017L35.1273 12.5946ZM34.1258 13.5159C34.4693 13.2064 34.8024 12.8967 35.1273 12.5946L34.855 12.3017C34.5297 12.604 34.1988 12.9117 33.8581 13.2187L34.1258 13.5159ZM29.0451 12.305C30.5168 12.3539 32.1746 12.4116 33.8821 13.5344L34.1018 13.2002C32.2916 12.0097 30.5296 11.9541 29.0584 11.9052L29.0451 12.305ZM25.776 11.4551C26.6323 12.2339 27.803 12.2638 29.0451 12.305L29.0584 11.9052C27.7755 11.8627 26.7722 11.8205 26.0451 11.1592L25.776 11.4551ZM22.9812 10.5155C22.1458 9.72543 21.3359 8.96119 20.7831 8.49601L20.5255 8.80208C21.0674 9.25799 21.8673 10.0126 22.7063 10.8061L22.9812 10.5155ZM24.933 12.3295C24.3474 11.8061 23.6592 11.1475 22.9801 10.5145L22.7074 10.8071C23.3804 11.4344 24.0768 12.1008 24.6664 12.6277L24.933 12.3295ZM28.982 13.5175C27.5486 13.4826 26.2375 13.4464 24.9298 12.3267L24.6696 12.6305C26.0957 13.8516 27.5422 13.8825 28.9723 13.9173L28.982 13.5175ZM32.8321 14.3148C31.4775 13.5756 30.1869 13.5468 28.982 13.5175L28.9723 13.9173C30.1818 13.9468 31.3807 13.9785 32.6405 14.6659L32.8321 14.3148ZM24.4506 22.2253L32.8701 14.6389L32.6024 14.3418L24.1828 21.9282L24.4506 22.2253ZM23.1722 24.9232C23.2258 23.9239 23.6623 22.9474 24.4518 22.2242L24.1816 21.9293C23.313 22.725 22.8319 23.8006 22.7728 24.9018L23.1722 24.9232ZM29.887 27.7865C29.1246 28.9865 27.4065 29.3452 25.8641 28.8399C24.34 28.3406 23.0573 27.0146 23.1722 24.9235L22.7728 24.9016C22.6462 27.2056 24.0761 28.675 25.7396 29.22C27.3846 29.7589 29.329 29.4106 30.2247 28.0011L29.887 27.7865ZM35.9316 22.0926L29.9188 27.7481L30.1929 28.0395L36.2057 22.384L35.9316 22.0926ZM36.9566 22.2017C36.7452 22.1371 36.5576 22.0797 36.4084 22.0473C36.3334 22.0311 36.2597 22.0192 36.1921 22.0175C36.1272 22.0158 36.0468 22.0226 35.9731 22.0626L36.1642 22.414C36.1486 22.4225 36.1472 22.4164 36.1817 22.4173C36.2134 22.4182 36.2594 22.4243 36.3236 22.4383C36.4529 22.4663 36.622 22.5177 36.8399 22.5842L36.9566 22.2017ZM47.383 19.2272C44.9681 21.5872 42.7798 22.4512 40.9968 22.6695C39.21 22.8883 37.8098 22.462 36.9566 22.2017L36.8399 22.5842C37.7001 22.8468 39.1695 23.2963 41.0454 23.0665C42.925 22.8364 45.1922 21.9275 47.6626 19.5132L47.383 19.2272ZM46.5441 18.3575C46.694 18.2103 46.8498 18.166 46.9889 18.1767C47.1333 18.1879 47.2765 18.26 47.3871 18.3742C47.4977 18.4884 47.5663 18.6349 47.5738 18.7818C47.5811 18.9237 47.5325 19.0803 47.3826 19.2275L47.6629 19.5129C47.8913 19.2885 47.9866 19.0219 47.9733 18.7614C47.9602 18.5058 47.8436 18.2706 47.6745 18.0959C47.5054 17.9213 47.2743 17.7975 47.0197 17.7779C46.76 17.7578 46.4922 17.8478 46.2638 18.0722L46.5441 18.3575ZM37.5309 21.1001C38.5368 21.3447 39.7889 21.6508 41.2933 21.3933C42.8012 21.1352 44.5398 20.3161 46.5437 18.3579L46.2641 18.0718C44.3047 19.9866 42.6368 20.7576 41.2258 20.999C39.8113 21.2411 38.6322 20.9562 37.6254 20.7115L37.5309 21.1001ZM35.3996 21.0001C35.6517 20.8629 35.9446 20.8267 36.3008 20.8577C36.6605 20.889 37.0634 20.9865 37.5309 21.1001L37.6254 20.7115C37.1664 20.5999 36.7316 20.4937 36.3355 20.4592C35.9359 20.4244 35.5549 20.4601 35.2083 20.6488L35.3996 21.0001ZM29.8963 26.0472C30.9782 24.9548 32.0812 23.8411 33.0544 22.9234C34.0336 22.0001 34.8624 21.2939 35.3999 20.9999L35.208 20.649C34.618 20.9717 33.7531 21.7148 32.78 22.6324C31.8008 23.5557 30.6926 24.6747 29.6121 25.7658L29.8963 26.0472ZM29.8942 26.0494L29.8956 26.0479L29.6128 25.7651L29.6113 25.7665L29.8942 26.0494ZM28.6679 27.2838C29.0676 26.8839 29.4796 26.4679 29.8948 26.0487L29.6106 25.7672C29.1953 26.1866 28.7839 26.6019 28.385 27.001L28.6679 27.2838ZM25.2711 23.1144C24.5822 23.7221 24.3017 24.4295 24.3207 25.1188C24.3395 25.8014 24.6512 26.4447 25.1064 26.9386C25.5614 27.4322 26.1723 27.7905 26.8111 27.8907C27.4562 27.9918 28.1259 27.8279 28.6682 27.2836L28.3848 27.0013C27.941 27.4467 27.4034 27.5786 26.873 27.4955C26.3364 27.4113 25.8038 27.1051 25.4005 26.6675C24.9975 26.2303 24.7362 25.6759 24.7205 25.1078C24.7051 24.5462 24.9287 23.9499 25.5357 23.4144L25.2711 23.1144ZM30.7871 18.1178C28.9554 19.8186 27.1289 21.5145 25.2729 23.1128L25.5339 23.4159C27.3965 21.8118 29.2286 20.1108 31.0592 18.411L30.7871 18.1178ZM30.7943 18.1115L30.793 18.1126L31.0533 18.4163L31.0546 18.4152L30.7943 18.1115ZM37.4217 12.1715C35.1694 14.0488 32.9752 16.0862 30.7884 18.1167L31.0605 18.4099C33.2488 16.378 35.4351 14.348 37.6778 12.4787L37.4217 12.1715ZM40.5494 10.5609C40.2116 10.5933 39.8548 10.6271 39.3649 10.8441C38.8812 11.0585 38.2765 11.4472 37.4205 12.1725L37.679 12.4777C38.521 11.7643 39.0925 11.4024 39.527 11.2098C39.9554 11.02 40.2589 10.9906 40.5875 10.9591L40.5494 10.5609ZM45.7247 7.02771C43.9844 8.7329 42.8976 9.59515 42.1424 10.0422C41.4007 10.4813 40.9806 10.5197 40.5494 10.561L40.5875 10.9591C41.0503 10.9148 41.5349 10.8667 42.3462 10.3864C43.1439 9.91422 44.2583 9.02452 46.0046 7.31342L45.7247 7.02771ZM59.005 19.923L46.0055 7.02857L45.7238 7.31256L58.7234 20.207L59.005 19.923ZM58.2948 23.5143C58.5001 22.28 58.6872 21.1592 59.0526 20.132L58.6758 19.998C58.2962 21.0647 58.1043 22.222 57.9002 23.4487L58.2948 23.5143ZM53.9874 33.7818C57.2409 29.8517 57.8125 26.4125 58.2948 23.5143L57.9002 23.4486C57.4204 26.3317 56.8623 29.6818 53.6793 33.5267L53.9874 33.7818ZM46.5849 26.7349L53.6924 33.7962L53.9743 33.5124L46.8669 26.4511L46.5849 26.7349ZM45.7399 27.5903C45.5921 27.4435 45.5451 27.2879 45.5536 27.147C45.5624 27.001 45.632 26.8555 45.7434 26.7425C45.8548 26.6295 45.9983 26.5588 46.1423 26.5491C46.281 26.5397 46.4359 26.5854 46.5842 26.7342L46.8676 26.4519C46.6416 26.225 46.3749 26.1324 46.1152 26.15C45.8607 26.1672 45.6289 26.2889 45.4586 26.4617C45.2882 26.6345 45.1697 26.8683 45.1544 27.1229C45.1387 27.3827 45.2316 27.6493 45.4581 27.8741L45.7399 27.5903ZM54.4977 36.3161L45.7402 27.5905L45.4578 27.8739L54.2154 36.5994L54.4977 36.3161ZM50.6815 40.1864C51.3044 40.8094 52.0205 41.0465 52.7055 40.9985C53.3852 40.9508 54.0191 40.6239 54.4917 40.1462C54.9643 39.6686 55.2856 39.0304 55.3273 38.3472C55.3693 37.659 55.1262 36.9405 54.4975 36.3159L54.2156 36.5997C54.7661 37.1465 54.9628 37.7541 54.928 38.3229C54.893 38.8968 54.6211 39.4467 54.2074 39.8649C53.7936 40.2831 53.2477 40.5595 52.6775 40.5995C52.1126 40.6391 51.5086 40.448 50.9644 39.9035L50.6815 40.1864ZM41.9162 31.4611L50.6818 40.1867L50.964 39.9032L42.1984 31.1776L41.9162 31.4611ZM41.064 32.3255C40.9157 32.1766 40.8692 32.0199 40.8782 31.8786C40.8876 31.7322 40.9579 31.5866 41.0703 31.4734C41.1827 31.3602 41.3275 31.2891 41.4729 31.2789C41.6131 31.2691 41.7686 31.3145 41.9164 31.4613L42.1982 31.1774C41.9718 30.9526 41.7046 30.8617 41.4449 30.8799C41.1903 30.8977 40.9578 31.019 40.7865 31.1916C40.6151 31.3642 40.4953 31.5978 40.479 31.8531C40.4624 32.1135 40.5547 32.381 40.7807 32.6078L41.064 32.3255ZM52.6545 43.8783L41.0636 32.325L40.7812 32.6083L52.3721 44.1616L52.6545 43.8783ZM48.8317 47.7419C49.4605 48.358 50.1785 48.592 50.8635 48.5436C51.5434 48.4956 52.176 48.1707 52.6473 47.6954C53.1186 47.2202 53.4381 46.5852 53.4794 45.9047C53.521 45.2192 53.279 44.503 52.6547 43.8785L52.3719 44.1613C52.9188 44.7084 53.1145 45.3142 53.0801 45.8804C53.0455 46.4517 52.7754 46.9983 52.3633 47.4138C51.9512 47.8293 51.4065 48.1042 50.8353 48.1446C50.2691 48.1846 49.662 47.9954 49.1116 47.4562L48.8317 47.7419ZM42.0526 41.0142C44.299 43.2753 46.5521 45.5433 48.8328 47.743L49.1105 47.4551C46.8334 45.2588 44.5832 42.9939 42.3364 40.7323L42.0526 41.0142ZM42.0475 41.0089L42.0515 41.0131L42.3375 40.7334L42.3335 40.7293L42.0475 41.0089ZM38.439 37.3914C39.6428 38.5884 40.8447 39.7982 42.0486 41.0101L42.3324 40.7282C41.1287 39.5165 39.9258 38.3057 38.721 37.1077L38.439 37.3914ZM37.594 38.2468C37.4462 38.1 37.3993 37.9444 37.4078 37.8035C37.4165 37.6575 37.4862 37.512 37.5976 37.399C37.709 37.286 37.8524 37.2153 37.9964 37.2056C38.1351 37.1962 38.2901 37.2419 38.4383 37.3907L38.7217 37.1084C38.4957 36.8815 38.229 36.7889 37.9693 36.8065C37.7149 36.8237 37.483 36.9454 37.3127 37.1182C37.1424 37.291 37.0238 37.5248 37.0085 37.7794C36.9928 38.0392 37.0858 38.3058 37.3122 38.5306L37.594 38.2468ZM47.8813 48.4996L37.5943 38.247L37.3119 38.5304L47.5989 48.7829L47.8813 48.4996ZM44.0572 52.37C45.418 53.7273 47.1538 53.5579 48.1602 52.6332C48.6623 52.1718 48.9827 51.5216 48.9771 50.7874C48.9714 50.052 48.6393 49.2562 47.8814 48.4997L47.5988 48.7828C48.2978 49.4805 48.5724 50.1804 48.5771 50.7905C48.5818 51.4017 48.3161 51.9467 47.8895 52.3387C47.0385 53.1207 45.5466 53.2906 44.3397 52.0868L44.0572 52.37ZM34.4304 42.7882L44.0573 52.3702L44.3395 52.0867L34.7126 42.5047L34.4304 42.7882ZM33.5855 43.6437C33.4377 43.4969 33.3907 43.3413 33.3992 43.2004C33.408 43.0544 33.4777 42.909 33.5891 42.7959C33.7005 42.6829 33.8439 42.6122 33.9879 42.6025C34.1266 42.5931 34.2815 42.6388 34.4298 42.7876L34.7132 42.5053C34.4872 42.2784 34.2205 42.1858 33.9608 42.2034C33.7064 42.2206 33.4745 42.3424 33.3042 42.5151C33.1339 42.6879 33.0153 42.9217 33 43.1764C32.9843 43.4361 33.0772 43.7027 33.3037 43.9276L33.5855 43.6437ZM39.1559 49.1944L33.5858 43.644L33.3034 43.9273L38.8735 49.4777L39.1559 49.1944ZM35.1067 52.8066C35.7278 53.4236 36.428 53.665 37.0991 53.6281C37.7651 53.5915 38.3847 53.2821 38.8572 52.8293C39.7961 51.9297 40.2067 50.3959 39.1653 49.2044L38.8641 49.4677C39.7223 50.4495 39.4165 51.7395 38.5805 52.5405C38.1656 52.938 37.6332 53.1982 37.0772 53.2287C36.5263 53.259 35.9346 53.0652 35.3886 52.5228L35.1067 52.8066ZM27.8946 45.6403L35.1067 52.8066L35.3886 52.5228L28.1765 45.3565L27.8946 45.6403ZM14.1501 32.6686L27.8982 45.6439L28.1728 45.353L14.4246 32.3777L14.1501 32.6686ZM11.0185 26.3164C11.4742 28.3437 11.973 30.574 14.1487 32.6673L14.426 32.3791C12.3435 30.3754 11.8637 28.2523 11.4088 26.2287L11.0185 26.3164ZM8.18266 21.0601C10.1458 22.4586 10.5589 24.2718 11.0185 26.3164L11.4088 26.2287C10.9509 24.1918 10.5155 22.2308 8.41475 20.7343L8.18266 21.0601ZM20.5135 8.50701L8.1579 20.7551L8.43951 21.0392L20.7951 8.79109L20.5135 8.50701ZM18.4652 38.955L19.9705 40.3608L20.2435 40.0684L18.7383 38.6626L18.4652 38.955ZM22.0773 42.0057C20.0448 43.4227 17.5046 41.0414 18.7736 38.9112L18.4299 38.7065C16.9461 41.1975 19.9116 44.0031 22.3061 42.3338L22.0773 42.0057ZM19.9702 40.3605L22.0549 42.3157L22.3285 42.0239L20.2438 40.0687L19.9702 40.3605ZM17.4427 37.4511C16.1953 36.2798 14.9963 35.149 13.9341 34.1395L13.6585 34.4294C14.7215 35.4397 15.9211 36.5711 17.1689 37.7427L17.4427 37.4511ZM13.6169 34.1961C12.4277 36.6096 15.0836 39.1058 17.4056 37.7703L17.2061 37.4236C15.2298 38.5603 12.9595 36.4352 13.9757 34.3729L13.6169 34.1961ZM23.2851 43.4697L26.7705 46.7984L27.0468 46.5091L23.5614 43.1805L23.2851 43.4697ZM26.9051 46.6101C24.8289 48.2565 22.0428 45.6158 23.5864 43.4409L23.2602 43.2094C21.4552 45.7526 24.7062 48.8644 27.1536 46.9236L26.9051 46.6101ZM26.7719 46.7997L26.8926 46.9128L27.1661 46.6209L27.0454 46.5078L26.7719 46.7997ZM28.0382 47.7999C26.0887 50.322 29.368 53.6049 31.8709 51.6092L31.6215 51.2964C29.5042 52.9848 26.6821 50.2083 28.3547 48.0445L28.0382 47.7999ZM31.8873 51.311L28.3375 47.7804L28.0554 48.064L31.6052 51.5946L31.8873 51.311Z" fill="url(#paint1_linear)" mask="url(#path-1-outside-1)"/>
<defs>
<linearGradient id="paint0_linear" x1="30.3834" y1="-20.537" x2="-11.4855" y2="40.4423" gradientUnits="userSpaceOnUse">
<stop stop-color="#2C7DBC"/>
<stop offset="1" stop-color="#7CCBC5"/>
</linearGradient>
<linearGradient id="paint1_linear" x1="24.3704" y1="-14.7475" x2="-8.05546" y2="43.3624" gradientUnits="userSpaceOnUse">
<stop stop-color="#2C7DBC"/>
<stop offset="1" stop-color="#7CCBC5"/>
</linearGradient>
</defs>
</svg>
