<?xml version="1.0" encoding="UTF-8"?>
<svg width="175px" height="40px" viewBox="0 0 175 40" version="1.1" xmlns="http://www.w3.org/2000/svg" xmlns:xlink="http://www.w3.org/1999/xlink">
    <!-- Generator: Sketch 50.2 (55047) - http://www.bohemiancoding.com/sketch -->
    <title>logo_travelcom</title>
    <desc>Created with Sketch.</desc>
    <defs></defs>
    <g id="Page-1" stroke="none" stroke-width="1" fill="none" fill-rule="evenodd">
        <g id="TravelCom" transform="translate(-57.000000, -49.000000)" fill="#FFFFFF">
            <g id="logo_travelcom" transform="translate(57.000000, 49.000000)">
                <path d="M56.08,10.4 L56.08,22 L53.28,22 L53.28,10.4 L49.5,10.4 L49.5,8 L59.86,8 L59.86,10.4 L56.08,10.4 Z M73.88,22 L70.8,22 L67.8,16.72 L66.06,16.72 L66.06,22 L63.26,22 L63.26,8 L70.84,8 L73.16,9.34 L73.16,15.38 L70.84,16.72 L73.88,22 Z M66.06,10.4 L66.06,14.32 L70.36,14.32 L70.36,10.4 L66.06,10.4 Z M84.2400001,8 L89.2400001,22 L86.4800001,22 L85.4200001,18.98 L80.1800001,18.98 L79.1200001,22 L76.3600001,22 L81.3600001,8 L84.2400001,8 Z M82.7800001,11.52 L81.0200001,16.58 L84.5600001,16.58 L82.8200001,11.52 L82.7800001,11.52 Z M103.12,8 L98.1200001,22 L95.0400001,22 L90.0400001,8 L92.8800001,8 L96.5800001,18.58 L96.6200001,18.58 L100.28,8 L103.12,8 Z M109.12,16 L109.12,19.6 L114.7,19.6 L114.7,22 L106.32,22 L106.32,8 L114.7,8 L114.7,10.4 L109.12,10.4 L109.12,13.6 L113.5,13.6 L113.5,16 L109.12,16 Z M118.5,22 L118.5,8 L121.3,8 L121.3,19.6 L126.08,19.6 L126.08,22 L118.5,22 Z M136.98,17.9 L139.78,17.9 L139.78,20.76 L137.46,22.1 L131.8,22.1 L129.48,20.76 L129.48,9.24 L131.8,7.9 L137.46,7.9 L139.78,9.24 L139.78,12.1 L136.98,12.1 L136.98,10.3 L132.28,10.3 L132.28,19.7 L136.98,19.7 L136.98,17.9 Z M155.08,20.76 L152.76,22.1 L146.5,22.1 L144.18,20.76 L144.18,9.24 L146.5,7.9 L152.76,7.9 L155.08,9.24 L155.08,20.76 Z M146.98,10.3 L146.98,19.7 L152.28,19.7 L152.28,10.3 L146.98,10.3 Z M171.46,22 L171.46,12.76 L171.42,12.76 L168.26,22 L165.6,22 L162.42,12.64 L162.38,12.64 L162.38,22 L159.68,22 L159.68,8 L163.4,8 L166.92,18.3 L166.96,18.3 L170.46,8 L174.16,8 L174.16,22 L171.46,22 Z" id="TravelCom"></path>
                <path d="M7.502,0 C7.254,0 7.006,0.122518382 6.82,0.306295956 L0.31,6.86102941 C0.124,7.04480699 0,7.35110294 0,7.59613971 L0,23.7685662 C0,24.0748621 0.124,24.3198989 0.31,24.5036765 L14.818,38.8995864 C15.004,39.083364 15.252,39.2058824 15.438,39.2058824 C15.686,39.2058824 15.872,39.083364 16.058,38.8995864 L30.69,24.5036765 C30.876,24.3198989 31,24.0136029 31,23.7685662 L31,7.59613971 C31,7.28984375 30.876,7.04480699 30.69,6.86102941 L24.18,0.306295956 C23.994,0.122518382 23.746,0 23.498,0 L7.502,0 Z M19.84,22.6659007 L11.16,22.6659007 C9.424,22.6659007 8.06,21.3181985 8.06,19.6029412 L8.06,11.0266544 C8.06,9.31139706 9.424,7.96369485 11.16,7.96369485 L19.84,7.96369485 C21.576,7.96369485 22.94,9.31139706 22.94,11.0266544 L22.94,19.6029412 C22.94,21.3181985 21.576,22.6659007 19.84,22.6659007 Z M11.16,10.4140625 C10.788,10.4140625 10.54,10.6590993 10.54,11.0266544 L10.54,19.6029412 C10.54,19.9704963 10.788,20.2155331 11.16,20.2155331 L19.84,20.2155331 C20.212,20.2155331 20.46,19.9704963 20.46,19.6029412 L20.46,11.0266544 C20.46,10.6590993 20.212,10.4140625 19.84,10.4140625 L11.16,10.4140625 Z" id="Shape" fill-rule="nonzero"></path>
            </g>
        </g>
    </g>
</svg>